<?xml version="1.0" encoding="UTF-8" standalone="no"?>
<!DOCTYPE svg PUBLIC "-//W3C//DTD SVG 1.1//EN"
 "http://www.w3.org/Graphics/SVG/1.1/DTD/svg11.dtd">
<!-- Generated by graphviz version 2.43.0 (0)
 -->
<!-- Title: _310 Pages: 1 -->
<svg width="934pt" height="255pt"
 viewBox="0.00 0.00 934.00 255.30" xmlns="http://www.w3.org/2000/svg" xmlns:xlink="http://www.w3.org/1999/xlink">
<g id="graph0" class="graph" transform="scale(1 1) rotate(0) translate(4 251.3)">
<title>_310</title>
<polygon fill="white" stroke="transparent" points="-4,4 -4,-251.3 930,-251.3 930,4 -4,4"/>
<g id="clust1" class="cluster">
<title>cluster310diagram</title>
<polygon fill="none" stroke="black" points="8,-36.3 8,-239.3 918,-239.3 918,-36.3 8,-36.3"/>
<text text-anchor="start" x="429" y="-220.6" font-family="Times,serif" font-weight="bold" font-size="14.00">Diagram</text>
</g>
<g id="clust2" class="cluster">
<title>cluster310subsystems</title>
<polygon fill="none" stroke="white" points="16,-44.3 16,-200.3 910,-200.3 910,-44.3 16,-44.3"/>
</g>
<!-- s303 -->
<g id="node1" class="node">
<title>s303</title>
<polygon fill="none" stroke="black" points="32,-99.3 32,-120.3 240,-120.3 240,-99.3 32,-99.3"/>
<text text-anchor="start" x="35" y="-107.1" font-family="Times,serif" font-weight="bold" font-size="14.00">__main__.PlanarPPRTheta</text>
<polygon fill="none" stroke="black" points="32,-78.3 32,-99.3 122,-99.3 122,-78.3 32,-78.3"/>
<text text-anchor="start" x="72" y="-85.1" font-family="Times,serif" font-size="14.00">F</text>
<polygon fill="none" stroke="black" points="122,-78.3 122,-99.3 240,-99.3 240,-78.3 122,-78.3"/>
<text text-anchor="start" x="162.5" y="-85.1" font-family="Times,serif" font-size="14.00">state</text>
</g>
<!-- s305 -->
<g id="node3" class="node">
<title>s305</title>
<polygon fill="none" stroke="black" points="292.5,-167.3 292.5,-188.3 491.5,-188.3 491.5,-167.3 292.5,-167.3"/>
<text text-anchor="start" x="295.5" y="-175.1" font-family="Times,serif" font-weight="bold" font-size="14.00">__main__.theta_extractor</text>
<polygon fill="none" stroke="black" points="292.5,-146.3 292.5,-167.3 400.5,-167.3 400.5,-146.3 292.5,-146.3"/>
<text text-anchor="start" x="306" y="-153.1" font-family="Times,serif" font-size="14.00">theta_state</text>
<polygon fill="none" stroke="black" points="400.5,-146.3 400.5,-167.3 491.5,-167.3 491.5,-146.3 400.5,-146.3"/>
<text text-anchor="start" x="414" y="-153.1" font-family="Times,serif" font-size="14.00">EE_state</text>
</g>
<!-- s303&#45;&gt;s305 -->
<g id="edge6" class="edge">
<title>s303:e&#45;&gt;s305:w</title>
<path fill="none" stroke="black" d="M241,-88.3C274.67,-88.3 258.39,-142.72 281.53,-154.19"/>
<polygon fill="black" stroke="black" points="280.99,-157.66 291.5,-156.3 282.44,-150.81 280.99,-157.66"/>
</g>
<!-- s307 -->
<g id="node5" class="node">
<title>s307</title>
<polygon fill="none" stroke="black" points="331.5,-99.3 331.5,-120.3 452.5,-120.3 452.5,-99.3 331.5,-99.3"/>
<text text-anchor="start" x="334.5" y="-107.1" font-family="Times,serif" font-weight="bold" font-size="14.00">VectorLogSink</text>
<polygon fill="none" stroke="black" points="331.5,-78.3 331.5,-99.3 407.5,-99.3 407.5,-78.3 331.5,-78.3"/>
<text text-anchor="start" x="353.5" y="-85.1" font-family="Times,serif" font-size="14.00">data</text>
<polyline fill="none" stroke="grey" points="407.5,-78.3 452.5,-78.3 452.5,-99.3 "/>
</g>
<!-- s303&#45;&gt;s307 -->
<g id="edge3" class="edge">
<title>s303:e&#45;&gt;s307:w</title>
<path fill="none" stroke="black" d="M241,-88.3C277.2,-88.3 288.69,-88.3 320.46,-88.3"/>
<polygon fill="black" stroke="black" points="320.5,-91.8 330.5,-88.3 320.5,-84.8 320.5,-91.8"/>
</g>
<!-- s304 -->
<g id="node2" class="node">
<title>s304</title>
<polygon fill="none" stroke="black" points="543,-98.3 543,-119.3 721,-119.3 721,-98.3 543,-98.3"/>
<text text-anchor="start" x="578.5" y="-106.1" font-family="Times,serif" font-weight="bold" font-size="14.00">PidController</text>
<polygon fill="none" stroke="black" points="543,-77.3 543,-98.3 664,-98.3 664,-77.3 543,-77.3"/>
<text text-anchor="start" x="546" y="-84.1" font-family="Times,serif" font-size="14.00">estimated_state</text>
<polygon fill="none" stroke="black" points="664,-56.3 664,-98.3 721,-98.3 721,-56.3 664,-56.3"/>
<text text-anchor="start" x="667" y="-73.6" font-family="Times,serif" font-size="14.00">control</text>
<polygon fill="none" stroke="black" points="543,-56.3 543,-77.3 664,-77.3 664,-56.3 543,-56.3"/>
<text text-anchor="start" x="555" y="-63.1" font-family="Times,serif" font-size="14.00">desired_state</text>
</g>
<!-- s304&#45;&gt;s303 -->
<g id="edge4" class="edge">
<title>s304:e&#45;&gt;s303:w</title>
<path fill="none" stroke="black" d="M722,-77.3C732.9,-77.3 728.86,-60.35 721,-52.8 661.37,4.45 617.65,-51.04 535,-52.8 311.29,-57.58 192.47,81.64 32,-74.3 30.88,-75.39 29.87,-76.81 29.08,-78.32"/>
<polygon fill="black" stroke="black" points="25.67,-79.14 31,-88.3 32.55,-77.82 25.67,-79.14"/>
</g>
<!-- s308 -->
<g id="node6" class="node">
<title>s308</title>
<polygon fill="none" stroke="black" points="773.5,-88.3 773.5,-109.3 894.5,-109.3 894.5,-88.3 773.5,-88.3"/>
<text text-anchor="start" x="776.5" y="-96.1" font-family="Times,serif" font-weight="bold" font-size="14.00">VectorLogSink</text>
<polygon fill="none" stroke="black" points="773.5,-67.3 773.5,-88.3 849.5,-88.3 849.5,-67.3 773.5,-67.3"/>
<text text-anchor="start" x="795.5" y="-74.1" font-family="Times,serif" font-size="14.00">data</text>
<polyline fill="none" stroke="grey" points="849.5,-67.3 894.5,-67.3 894.5,-88.3 "/>
</g>
<!-- s304&#45;&gt;s308 -->
<g id="edge5" class="edge">
<title>s304:e&#45;&gt;s308:w</title>
<path fill="none" stroke="black" d="M722,-77.3C740.59,-77.3 747.63,-77.3 762.25,-77.3"/>
<polygon fill="black" stroke="black" points="762.5,-80.8 772.5,-77.3 762.5,-73.8 762.5,-80.8"/>
</g>
<!-- s305&#45;&gt;s304 -->
<g id="edge1" class="edge">
<title>s305:e&#45;&gt;s304:w</title>
<path fill="none" stroke="black" d="M492.5,-156.3C526.26,-156.3 509.03,-101.09 532.04,-89.44"/>
<polygon fill="black" stroke="black" points="532.96,-92.82 542,-87.3 531.49,-85.98 532.96,-92.82"/>
</g>
<!-- s306 -->
<g id="node4" class="node">
<title>s306</title>
<polygon fill="none" stroke="black" points="572,-167.3 572,-188.3 693,-188.3 693,-167.3 572,-167.3"/>
<text text-anchor="start" x="575" y="-175.1" font-family="Times,serif" font-weight="bold" font-size="14.00">VectorLogSink</text>
<polygon fill="none" stroke="black" points="572,-146.3 572,-167.3 648,-167.3 648,-146.3 572,-146.3"/>
<text text-anchor="start" x="594" y="-153.1" font-family="Times,serif" font-size="14.00">data</text>
<polyline fill="none" stroke="grey" points="648,-146.3 693,-146.3 693,-167.3 "/>
</g>
<!-- s305&#45;&gt;s306 -->
<g id="edge2" class="edge">
<title>s305:e&#45;&gt;s306:w</title>
<path fill="none" stroke="black" d="M492.5,-156.3C523.71,-156.3 533.98,-156.3 560.77,-156.3"/>
<polygon fill="black" stroke="black" points="561,-159.8 571,-156.3 561,-152.8 561,-159.8"/>
</g>
</g>
</svg>
