<?xml version="1.0" encoding="UTF-8" standalone="no"?>
<!DOCTYPE svg PUBLIC "-//W3C//DTD SVG 1.1//EN"
 "http://www.w3.org/Graphics/SVG/1.1/DTD/svg11.dtd">
<!-- Generated by graphviz version 2.43.0 (0)
 -->
<!-- Title: _484 Pages: 1 -->
<svg width="1470pt" height="579pt"
 viewBox="0.00 0.00 1470.09 579.33" xmlns="http://www.w3.org/2000/svg" xmlns:xlink="http://www.w3.org/1999/xlink">
<g id="graph0" class="graph" transform="scale(1 1) rotate(0) translate(4 575.33)">
<title>_484</title>
<polygon fill="white" stroke="transparent" points="-4,4 -4,-575.33 1466.09,-575.33 1466.09,4 -4,4"/>
<g id="clust1" class="cluster">
<title>cluster484diagram</title>
<polygon fill="none" stroke="black" points="8,-8 8,-555 1454.09,-555 1454.09,-8 8,-8"/>
<text text-anchor="start" x="697.05" y="-536.3" font-family="Times,serif" font-weight="bold" font-size="14.00">Diagram</text>
</g>
<g id="clust2" class="cluster">
<title>cluster484subsystems</title>
<polygon fill="none" stroke="white" points="16,-16 16,-516 1446.09,-516 1446.09,-16 16,-16"/>
</g>
<!-- s416 -->
<g id="node1" class="node">
<title>s416</title>
<polygon fill="none" stroke="black" points="32.5,-469 32.5,-503 663.5,-503 663.5,-469 32.5,-469"/>
<text text-anchor="start" x="286.5" y="-489.8" font-family="Times,serif" font-weight="bold" font-size="14.00">MultibodyPlant</text>
<text text-anchor="start" x="304" y="-475.8" font-family="Times,serif" font-size="14.00">name=plant</text>
<polygon fill="none" stroke="black" points="32.5,-448 32.5,-469 299.5,-469 299.5,-448 32.5,-448"/>
<text text-anchor="start" x="107.5" y="-454.8" font-family="Times,serif" font-size="14.00">geometry_query</text>
<polygon fill="none" stroke="black" points="299.5,-448 299.5,-469 663.5,-469 663.5,-448 299.5,-448"/>
<text text-anchor="start" x="427" y="-454.8" font-family="Times,serif" font-size="14.00">geometry_pose</text>
<polygon fill="none" stroke="black" points="32.5,-427 32.5,-448 299.5,-448 299.5,-427 32.5,-427"/>
<text text-anchor="start" x="55.5" y="-433.8" font-family="Times,serif" font-size="14.00" fill="grey">WorldModelInstance_actuation</text>
<polygon fill="none" stroke="black" points="299.5,-427 299.5,-448 663.5,-448 663.5,-427 299.5,-427"/>
<text text-anchor="start" x="356" y="-433.8" font-family="Times,serif" font-size="14.00" fill="grey">WorldModelInstance_net_actuation</text>
<polygon fill="none" stroke="black" points="32.5,-406 32.5,-427 299.5,-427 299.5,-406 32.5,-406"/>
<text text-anchor="start" x="50" y="-412.8" font-family="Times,serif" font-size="14.00" fill="grey">DefaultModelInstance_actuation</text>
<polygon fill="none" stroke="black" points="299.5,-406 299.5,-427 663.5,-427 663.5,-406 299.5,-406"/>
<text text-anchor="start" x="350.5" y="-412.8" font-family="Times,serif" font-size="14.00" fill="grey">DefaultModelInstance_net_actuation</text>
<polygon fill="none" stroke="black" points="32.5,-385 32.5,-406 299.5,-406 299.5,-385 32.5,-385"/>
<text text-anchor="start" x="113.5" y="-391.8" font-family="Times,serif" font-size="14.00">PRR_actuation</text>
<polygon fill="none" stroke="black" points="299.5,-385 299.5,-406 663.5,-406 663.5,-385 299.5,-385"/>
<text text-anchor="start" x="414" y="-391.8" font-family="Times,serif" font-size="14.00">PRR_net_actuation</text>
<polygon fill="none" stroke="black" points="32.5,-364 32.5,-385 299.5,-385 299.5,-364 32.5,-364"/>
<text text-anchor="start" x="132.5" y="-370.8" font-family="Times,serif" font-size="14.00">actuation</text>
<polygon fill="none" stroke="black" points="299.5,-364 299.5,-385 663.5,-385 663.5,-364 299.5,-364"/>
<text text-anchor="start" x="433" y="-370.8" font-family="Times,serif" font-size="14.00">net_actuation</text>
<polygon fill="none" stroke="black" points="32.5,-343 32.5,-364 299.5,-364 299.5,-343 32.5,-343"/>
<text text-anchor="start" x="41" y="-349.8" font-family="Times,serif" font-size="14.00" fill="grey">WorldModelInstance_desired_state</text>
<polygon fill="none" stroke="black" points="299.5,-343 299.5,-364 663.5,-364 663.5,-343 299.5,-343"/>
<text text-anchor="start" x="463" y="-349.8" font-family="Times,serif" font-size="14.00">state</text>
<polygon fill="none" stroke="black" points="32.5,-322 32.5,-343 299.5,-343 299.5,-322 32.5,-322"/>
<text text-anchor="start" x="35.5" y="-328.8" font-family="Times,serif" font-size="14.00" fill="grey">DefaultModelInstance_desired_state</text>
<polygon fill="none" stroke="black" points="299.5,-322 299.5,-343 663.5,-343 663.5,-322 299.5,-322"/>
<text text-anchor="start" x="440.5" y="-328.8" font-family="Times,serif" font-size="14.00">body_poses</text>
<polygon fill="none" stroke="black" points="32.5,-301 32.5,-322 299.5,-322 299.5,-301 32.5,-301"/>
<text text-anchor="start" x="99" y="-307.8" font-family="Times,serif" font-size="14.00" fill="grey">PRR_desired_state</text>
<polygon fill="none" stroke="black" points="299.5,-301 299.5,-322 663.5,-322 663.5,-301 299.5,-301"/>
<text text-anchor="start" x="420" y="-307.8" font-family="Times,serif" font-size="14.00">spatial_velocities</text>
<polygon fill="none" stroke="black" points="32.5,-280 32.5,-301 299.5,-301 299.5,-280 32.5,-280"/>
<text text-anchor="start" x="73" y="-286.8" font-family="Times,serif" font-size="14.00">applied_generalized_force</text>
<polygon fill="none" stroke="black" points="299.5,-280 299.5,-301 663.5,-301 663.5,-280 299.5,-280"/>
<text text-anchor="start" x="406.5" y="-286.8" font-family="Times,serif" font-size="14.00">spatial_accelerations</text>
<polygon fill="none" stroke="black" points="32.5,-259 32.5,-280 299.5,-280 299.5,-259 32.5,-259"/>
<text text-anchor="start" x="90.5" y="-265.8" font-family="Times,serif" font-size="14.00">applied_spatial_force</text>
<polygon fill="none" stroke="black" points="299.5,-259 299.5,-280 663.5,-280 663.5,-259 299.5,-259"/>
<text text-anchor="start" x="392.5" y="-265.8" font-family="Times,serif" font-size="14.00">generalized_acceleration</text>
<polyline fill="none" stroke="grey" points="32.5,-259 32.5,-28 299.5,-28 "/>
<polygon fill="none" stroke="black" points="299.5,-238 299.5,-259 663.5,-259 663.5,-238 299.5,-238"/>
<text text-anchor="start" x="386.5" y="-244.8" font-family="Times,serif" font-size="14.00" fill="grey">WorldModelInstance_state</text>
<polygon fill="none" stroke="black" points="299.5,-217 299.5,-238 663.5,-238 663.5,-217 299.5,-217"/>
<text text-anchor="start" x="316" y="-223.8" font-family="Times,serif" font-size="14.00" fill="grey">WorldModelInstance_generalized_acceleration</text>
<polygon fill="none" stroke="black" points="299.5,-196 299.5,-217 663.5,-217 663.5,-196 299.5,-196"/>
<text text-anchor="start" x="381" y="-202.8" font-family="Times,serif" font-size="14.00" fill="grey">DefaultModelInstance_state</text>
<polygon fill="none" stroke="black" points="299.5,-175 299.5,-196 663.5,-196 663.5,-175 299.5,-175"/>
<text text-anchor="start" x="310.5" y="-181.8" font-family="Times,serif" font-size="14.00" fill="grey">DefaultModelInstance_generalized_acceleration</text>
<polygon fill="none" stroke="black" points="299.5,-154 299.5,-175 663.5,-175 663.5,-154 299.5,-154"/>
<text text-anchor="start" x="444.5" y="-160.8" font-family="Times,serif" font-size="14.00">PRR_state</text>
<polygon fill="none" stroke="black" points="299.5,-133 299.5,-154 663.5,-154 663.5,-133 299.5,-133"/>
<text text-anchor="start" x="374" y="-139.8" font-family="Times,serif" font-size="14.00">PRR_generalized_acceleration</text>
<polygon fill="none" stroke="black" points="299.5,-112 299.5,-133 663.5,-133 663.5,-112 299.5,-112"/>
<text text-anchor="start" x="308" y="-118.8" font-family="Times,serif" font-size="14.00" fill="grey">WorldModelInstance_generalized_contact_forces</text>
<polygon fill="none" stroke="black" points="299.5,-91 299.5,-112 663.5,-112 663.5,-91 299.5,-91"/>
<text text-anchor="start" x="302.5" y="-97.8" font-family="Times,serif" font-size="14.00" fill="grey">DefaultModelInstance_generalized_contact_forces</text>
<polygon fill="none" stroke="black" points="299.5,-70 299.5,-91 663.5,-91 663.5,-70 299.5,-70"/>
<text text-anchor="start" x="366" y="-76.8" font-family="Times,serif" font-size="14.00">PRR_generalized_contact_forces</text>
<polygon fill="none" stroke="black" points="299.5,-49 299.5,-70 663.5,-70 663.5,-49 299.5,-49"/>
<text text-anchor="start" x="427" y="-55.8" font-family="Times,serif" font-size="14.00">reaction_forces</text>
<polygon fill="none" stroke="black" points="299.5,-28 299.5,-49 663.5,-49 663.5,-28 299.5,-28"/>
<text text-anchor="start" x="427" y="-34.8" font-family="Times,serif" font-size="14.00">contact_results</text>
</g>
<!-- s417 -->
<g id="node2" class="node">
<title>s417</title>
<polygon fill="none" stroke="black" points="732.5,-470 732.5,-504 925.5,-504 925.5,-470 732.5,-470"/>
<text text-anchor="start" x="781" y="-490.8" font-family="Times,serif" font-weight="bold" font-size="14.00">SceneGraph</text>
<text text-anchor="start" x="758.5" y="-476.8" font-family="Times,serif" font-size="14.00">name=scene_graph</text>
<polygon fill="none" stroke="black" points="732.5,-449 732.5,-470 877.5,-470 877.5,-449 732.5,-449"/>
<text text-anchor="start" x="766.5" y="-455.8" font-family="Times,serif" font-size="14.00">plant_pose</text>
<polygon fill="none" stroke="black" points="877.5,-428 877.5,-470 925.5,-470 925.5,-428 877.5,-428"/>
<text text-anchor="start" x="880.5" y="-445.3" font-family="Times,serif" font-size="14.00">query</text>
<polygon fill="none" stroke="black" points="732.5,-428 732.5,-449 877.5,-449 877.5,-428 732.5,-428"/>
<text text-anchor="start" x="735.5" y="-434.8" font-family="Times,serif" font-size="14.00">plant_configuration</text>
</g>
<!-- s416&#45;&gt;s417 -->
<g id="edge2" class="edge">
<title>s416:e&#45;&gt;s417:w</title>
<path fill="none" stroke="black" d="M664.5,-459C690.56,-459 699.51,-459 721.29,-459"/>
<polygon fill="black" stroke="black" points="721.5,-462.5 731.5,-459 721.5,-455.5 721.5,-462.5"/>
</g>
<!-- s462 -->
<g id="node3" class="node">
<title>s462</title>
<polygon fill="none" stroke="black" points="715.5,-358 715.5,-379 942.5,-379 942.5,-358 715.5,-358"/>
<text text-anchor="start" x="720" y="-365.8" font-family="Times,serif" font-weight="bold" font-size="14.00">__main__.ForceControllerPD</text>
<polygon fill="none" stroke="black" points="715.5,-337 715.5,-358 830.5,-358 830.5,-337 715.5,-337"/>
<text text-anchor="start" x="754.5" y="-343.8" font-family="Times,serif" font-size="14.00">state</text>
<polygon fill="none" stroke="black" points="830.5,-316 830.5,-358 942.5,-358 942.5,-316 830.5,-316"/>
<text text-anchor="start" x="833.5" y="-333.3" font-family="Times,serif" font-size="14.00">cartesianForce</text>
<polygon fill="none" stroke="black" points="715.5,-316 715.5,-337 830.5,-337 830.5,-316 715.5,-316"/>
<text text-anchor="start" x="718.5" y="-322.8" font-family="Times,serif" font-size="14.00">target_position</text>
</g>
<!-- s416&#45;&gt;s462 -->
<g id="edge4" class="edge">
<title>s416:e&#45;&gt;s462:w</title>
<path fill="none" stroke="black" d="M664.5,-354C683.08,-354 689.79,-349.2 704.29,-347.55"/>
<polygon fill="black" stroke="black" points="704.7,-351.03 714.5,-347 704.33,-344.04 704.7,-351.03"/>
</g>
<!-- s417&#45;&gt;s416 -->
<g id="edge6" class="edge">
<title>s417:e&#45;&gt;s416:w</title>
<path fill="none" stroke="black" d="M926.5,-449C937.62,-449 933.52,-431.7 925.5,-424 893.21,-392.98 763.24,-402.43 724,-424 685.48,-445.17 709.52,-486.33 671,-507.5 546.66,-575.85 133.86,-606.79 32.5,-507.5 20.11,-495.36 13.05,-471.35 22,-462.44"/>
<polygon fill="black" stroke="black" points="23.29,-465.69 31.5,-459 20.91,-459.11 23.29,-465.69"/>
</g>
<!-- s464 -->
<g id="node5" class="node">
<title>s464</title>
<polygon fill="none" stroke="black" points="1008,-455 1008,-503 1281,-503 1281,-455 1008,-455"/>
<text text-anchor="start" x="1071" y="-489.8" font-family="Times,serif" font-weight="bold" font-size="14.00">MeshcatVisualizer</text>
<text text-anchor="start" x="1011" y="-475.8" font-family="Times,serif" font-size="14.00">name=meshcat_visualizer(visualizer)</text>
<text text-anchor="start" x="1063" y="-461.8" font-family="Times,serif" font-size="14.00">path=/drake/visualizer</text>
<polygon fill="none" stroke="black" points="1008,-434 1008,-455 1190,-455 1190,-434 1008,-434"/>
<text text-anchor="start" x="1053" y="-440.8" font-family="Times,serif" font-size="14.00">query_object</text>
<polyline fill="none" stroke="grey" points="1190,-434 1281,-434 1281,-455 "/>
</g>
<!-- s417&#45;&gt;s464 -->
<g id="edge3" class="edge">
<title>s417:e&#45;&gt;s464:w</title>
<path fill="none" stroke="black" d="M926.5,-449C958.71,-449 969.09,-444.96 996.86,-444.14"/>
<polygon fill="black" stroke="black" points="997.05,-447.64 1007,-444 996.95,-440.64 997.05,-447.64"/>
</g>
<!-- s463 -->
<g id="node4" class="node">
<title>s463</title>
<polygon fill="none" stroke="black" points="994,-326 994,-347 1294,-347 1294,-326 994,-326"/>
<text text-anchor="start" x="997" y="-333.8" font-family="Times,serif" font-weight="bold" font-size="14.00">__main__.EndEffector_force_input_Sys</text>
<polygon fill="none" stroke="black" points="994,-305 994,-326 1159,-326 1159,-305 994,-305"/>
<text text-anchor="start" x="1021" y="-311.8" font-family="Times,serif" font-size="14.00">cartesian Force</text>
<polygon fill="none" stroke="black" points="1159,-305 1159,-326 1294,-326 1294,-305 1159,-305"/>
<text text-anchor="start" x="1186.5" y="-311.8" font-family="Times,serif" font-size="14.00">F&#45;cartesian</text>
</g>
<!-- s462&#45;&gt;s463 -->
<g id="edge5" class="edge">
<title>s462:e&#45;&gt;s463:w</title>
<path fill="none" stroke="black" d="M943.5,-337C963.63,-337 967.87,-321.63 982.78,-316.58"/>
<polygon fill="black" stroke="black" points="983.65,-319.99 993,-315 982.58,-313.07 983.65,-319.99"/>
</g>
<!-- s463&#45;&gt;s416 -->
<g id="edge7" class="edge">
<title>s463:e&#45;&gt;s416:w</title>
<path fill="none" stroke="black" d="M1295,-315C1301.24,-315 1298.57,-305.25 1294,-301 1193.82,-207.72 1122.89,-300.26 986,-301 861.99,-301.67 801.59,-223.81 707,-304 636.94,-363.4 741.38,-448.48 671,-507.5 616.64,-553.09 82.77,-557.56 32.5,-507.5 15.85,-490.92 7.13,-315.48 24.07,-277.31"/>
<polygon fill="black" stroke="black" points="26.82,-279.51 31.5,-270 21.92,-274.51 26.82,-279.51"/>
</g>
<!-- meshcat_in -->
<g id="node6" class="node">
<title>meshcat_in</title>
<ellipse fill="none" stroke="magenta" cx="1388.05" cy="-469" rx="50.09" ry="18"/>
<text text-anchor="middle" x="1388.05" y="-465.3" font-family="Times,serif" font-size="14.00">Meshcat</text>
</g>
<!-- s464&#45;&gt;meshcat_in -->
<g id="edge1" class="edge">
<title>s464:e&#45;&gt;meshcat_in</title>
<path fill="none" stroke="magenta" stroke-dasharray="5,2" d="M1290,-469C1302.11,-469 1315.07,-469 1327.45,-469"/>
<polygon fill="magenta" stroke="magenta" points="1327.68,-472.5 1337.68,-469 1327.68,-465.5 1327.68,-472.5"/>
</g>
</g>
</svg>
