<?xml version="1.0" encoding="UTF-8" standalone="no"?>
<!DOCTYPE svg PUBLIC "-//W3C//DTD SVG 1.1//EN"
 "http://www.w3.org/Graphics/SVG/1.1/DTD/svg11.dtd">
<!-- Generated by graphviz version 2.43.0 (0)
 -->
<!-- Title: _11 Pages: 1 -->
<svg width="1108pt" height="225pt"
 viewBox="0.00 0.00 1108.00 225.00" xmlns="http://www.w3.org/2000/svg" xmlns:xlink="http://www.w3.org/1999/xlink">
<g id="graph0" class="graph" transform="scale(1 1) rotate(0) translate(4 221)">
<title>_11</title>
<polygon fill="white" stroke="transparent" points="-4,4 -4,-221 1104,-221 1104,4 -4,4"/>
<g id="clust1" class="cluster">
<title>cluster11diagram</title>
<polygon fill="none" stroke="black" points="8,-8 8,-209 1092,-209 1092,-8 8,-8"/>
<text text-anchor="start" x="516" y="-190.3" font-family="Times,serif" font-weight="bold" font-size="14.00">Diagram</text>
</g>
<g id="clust2" class="cluster">
<title>cluster11subsystems</title>
<polygon fill="none" stroke="white" points="16,-16 16,-170 1084,-170 1084,-16 16,-16"/>
</g>
<!-- s6 -->
<g id="node1" class="node">
<title>s6</title>
<polygon fill="none" stroke="black" points="32,-69 32,-90 264,-90 264,-69 32,-69"/>
<text text-anchor="start" x="35" y="-76.8" font-family="Times,serif" font-weight="bold" font-size="14.00">__main__.PlanarPRR_inTheta</text>
<polygon fill="none" stroke="black" points="32,-48 32,-69 134,-69 134,-48 32,-48"/>
<text text-anchor="start" x="78" y="-54.8" font-family="Times,serif" font-size="14.00">F</text>
<polygon fill="none" stroke="black" points="134,-48 134,-69 264,-69 264,-48 134,-48"/>
<text text-anchor="start" x="180.5" y="-54.8" font-family="Times,serif" font-size="14.00">state</text>
</g>
<!-- s7 -->
<g id="node2" class="node">
<title>s7</title>
<polygon fill="none" stroke="black" points="316,-137 316,-158 608,-158 608,-137 316,-137"/>
<text text-anchor="start" x="319" y="-144.8" font-family="Times,serif" font-weight="bold" font-size="14.00">__main__.PlanarPRR_theta_extractor</text>
<polygon fill="none" stroke="black" points="316,-116 316,-137 470,-137 470,-116 316,-116"/>
<text text-anchor="start" x="352.5" y="-122.8" font-family="Times,serif" font-size="14.00">theta_state</text>
<polygon fill="none" stroke="black" points="470,-116 470,-137 608,-137 608,-116 470,-116"/>
<text text-anchor="start" x="507" y="-122.8" font-family="Times,serif" font-size="14.00">EE_state</text>
</g>
<!-- s6&#45;&gt;s7 -->
<g id="edge3" class="edge">
<title>s6:e&#45;&gt;s7:w</title>
<path fill="none" stroke="black" d="M265,-58C298.56,-58 282.07,-112.41 305.07,-123.89"/>
<polygon fill="black" stroke="black" points="304.49,-127.35 315,-126 305.95,-120.5 304.49,-127.35"/>
</g>
<!-- s9 -->
<g id="node4" class="node">
<title>s9</title>
<polygon fill="none" stroke="black" points="402,-69 402,-90 523,-90 523,-69 402,-69"/>
<text text-anchor="start" x="405" y="-76.8" font-family="Times,serif" font-weight="bold" font-size="14.00">VectorLogSink</text>
<polygon fill="none" stroke="black" points="402,-48 402,-69 478,-69 478,-48 402,-48"/>
<text text-anchor="start" x="424" y="-54.8" font-family="Times,serif" font-size="14.00">data</text>
<polyline fill="none" stroke="grey" points="478,-48 523,-48 523,-69 "/>
</g>
<!-- s6&#45;&gt;s9 -->
<g id="edge5" class="edge">
<title>s6:e&#45;&gt;s9:w</title>
<path fill="none" stroke="black" d="M265,-58C321.9,-58 338.63,-58 390.82,-58"/>
<polygon fill="black" stroke="black" points="391,-61.5 401,-58 391,-54.5 391,-61.5"/>
</g>
<!-- s8 -->
<g id="node3" class="node">
<title>s8</title>
<polygon fill="none" stroke="black" points="660.5,-103 660.5,-124 895.5,-124 895.5,-103 660.5,-103"/>
<text text-anchor="start" x="663.5" y="-110.8" font-family="Times,serif" font-weight="bold" font-size="14.00">__main__.CartesianController</text>
<polygon fill="none" stroke="black" points="660.5,-82 660.5,-103 821.5,-103 821.5,-82 660.5,-82"/>
<text text-anchor="start" x="697.5" y="-88.8" font-family="Times,serif" font-size="14.00">actual_state</text>
<polygon fill="none" stroke="black" points="821.5,-61 821.5,-103 895.5,-103 895.5,-61 821.5,-61"/>
<text text-anchor="start" x="853.5" y="-78.3" font-family="Times,serif" font-size="14.00">F</text>
<polygon fill="none" stroke="black" points="660.5,-61 660.5,-82 821.5,-82 821.5,-61 660.5,-61"/>
<text text-anchor="start" x="692.5" y="-67.8" font-family="Times,serif" font-size="14.00">desired_state</text>
</g>
<!-- s7&#45;&gt;s8 -->
<g id="edge4" class="edge">
<title>s7:e&#45;&gt;s8:w</title>
<path fill="none" stroke="black" d="M609,-126C632.04,-126 632.84,-101.34 649.28,-94.03"/>
<polygon fill="black" stroke="black" points="650.37,-97.38 659.5,-92 649.01,-90.51 650.37,-97.38"/>
</g>
<!-- s8&#45;&gt;s6 -->
<g id="edge2" class="edge">
<title>s8:e&#45;&gt;s6:w</title>
<path fill="none" stroke="black" d="M896.5,-82C907.4,-82 903.05,-65.36 895.5,-57.5 809.14,32.35 740.52,-40 616,-35 479.22,-29.5 444.87,-32.77 308,-35 185.28,-37 120.45,41.09 32,-44 30.88,-45.08 29.86,-46.5 29.07,-48.01"/>
<polygon fill="black" stroke="black" points="25.67,-48.85 31,-58 32.54,-47.52 25.67,-48.85"/>
</g>
<!-- s10 -->
<g id="node5" class="node">
<title>s10</title>
<polygon fill="none" stroke="black" points="947.5,-93 947.5,-114 1068.5,-114 1068.5,-93 947.5,-93"/>
<text text-anchor="start" x="950.5" y="-100.8" font-family="Times,serif" font-weight="bold" font-size="14.00">VectorLogSink</text>
<polygon fill="none" stroke="black" points="947.5,-72 947.5,-93 1023.5,-93 1023.5,-72 947.5,-72"/>
<text text-anchor="start" x="969.5" y="-78.8" font-family="Times,serif" font-size="14.00">data</text>
<polyline fill="none" stroke="grey" points="1023.5,-72 1068.5,-72 1068.5,-93 "/>
</g>
<!-- s8&#45;&gt;s10 -->
<g id="edge1" class="edge">
<title>s8:e&#45;&gt;s10:w</title>
<path fill="none" stroke="black" d="M896.5,-82C914.9,-82 921.88,-82 936.35,-82"/>
<polygon fill="black" stroke="black" points="936.5,-85.5 946.5,-82 936.5,-78.5 936.5,-85.5"/>
</g>
</g>
</svg>
