<?xml version="1.0" encoding="UTF-8" standalone="no"?>
<!DOCTYPE svg PUBLIC "-//W3C//DTD SVG 1.1//EN"
 "http://www.w3.org/Graphics/SVG/1.1/DTD/svg11.dtd">
<!-- Generated by graphviz version 2.43.0 (0)
 -->
<!-- Title: _73 Pages: 1 -->
<svg width="1788pt" height="662pt"
 viewBox="0.00 0.00 1788.00 662.00" xmlns="http://www.w3.org/2000/svg" xmlns:xlink="http://www.w3.org/1999/xlink">
<g id="graph0" class="graph" transform="scale(1 1) rotate(0) translate(4 658)">
<title>_73</title>
<polygon fill="white" stroke="transparent" points="-4,4 -4,-658 1784,-658 1784,4 -4,4"/>
<g id="clust1" class="cluster">
<title>cluster73diagram</title>
<polygon fill="none" stroke="black" points="8,-8 8,-644 1772,-644 1772,-8 8,-8"/>
<text text-anchor="start" x="856" y="-625.3" font-family="Times,serif" font-weight="bold" font-size="14.00">Diagram</text>
</g>
<g id="clust2" class="cluster">
<title>cluster73subsystems</title>
<polygon fill="none" stroke="white" points="16,-16 16,-605 1764,-605 1764,-16 16,-16"/>
</g>
<!-- s2 -->
<g id="node1" class="node">
<title>s2</title>
<polygon fill="none" stroke="black" points="32.5,-558 32.5,-592 663.5,-592 663.5,-558 32.5,-558"/>
<text text-anchor="start" x="286.5" y="-578.8" font-family="Times,serif" font-weight="bold" font-size="14.00">MultibodyPlant</text>
<text text-anchor="start" x="304" y="-564.8" font-family="Times,serif" font-size="14.00">name=plant</text>
<polygon fill="none" stroke="black" points="32.5,-537 32.5,-558 299.5,-558 299.5,-537 32.5,-537"/>
<text text-anchor="start" x="107.5" y="-543.8" font-family="Times,serif" font-size="14.00">geometry_query</text>
<polygon fill="none" stroke="black" points="299.5,-537 299.5,-558 663.5,-558 663.5,-537 299.5,-537"/>
<text text-anchor="start" x="427" y="-543.8" font-family="Times,serif" font-size="14.00">geometry_pose</text>
<polygon fill="none" stroke="black" points="32.5,-516 32.5,-537 299.5,-537 299.5,-516 32.5,-516"/>
<text text-anchor="start" x="55.5" y="-522.8" font-family="Times,serif" font-size="14.00" fill="grey">WorldModelInstance_actuation</text>
<polygon fill="none" stroke="black" points="299.5,-516 299.5,-537 663.5,-537 663.5,-516 299.5,-516"/>
<text text-anchor="start" x="356" y="-522.8" font-family="Times,serif" font-size="14.00" fill="grey">WorldModelInstance_net_actuation</text>
<polygon fill="none" stroke="black" points="32.5,-495 32.5,-516 299.5,-516 299.5,-495 32.5,-495"/>
<text text-anchor="start" x="50" y="-501.8" font-family="Times,serif" font-size="14.00" fill="grey">DefaultModelInstance_actuation</text>
<polygon fill="none" stroke="black" points="299.5,-495 299.5,-516 663.5,-516 663.5,-495 299.5,-495"/>
<text text-anchor="start" x="350.5" y="-501.8" font-family="Times,serif" font-size="14.00" fill="grey">DefaultModelInstance_net_actuation</text>
<polygon fill="none" stroke="black" points="32.5,-474 32.5,-495 299.5,-495 299.5,-474 32.5,-474"/>
<text text-anchor="start" x="113.5" y="-480.8" font-family="Times,serif" font-size="14.00">PRR_actuation</text>
<polygon fill="none" stroke="black" points="299.5,-474 299.5,-495 663.5,-495 663.5,-474 299.5,-474"/>
<text text-anchor="start" x="414" y="-480.8" font-family="Times,serif" font-size="14.00">PRR_net_actuation</text>
<polygon fill="none" stroke="black" points="32.5,-453 32.5,-474 299.5,-474 299.5,-453 32.5,-453"/>
<text text-anchor="start" x="132.5" y="-459.8" font-family="Times,serif" font-size="14.00">actuation</text>
<polygon fill="none" stroke="black" points="299.5,-453 299.5,-474 663.5,-474 663.5,-453 299.5,-453"/>
<text text-anchor="start" x="433" y="-459.8" font-family="Times,serif" font-size="14.00">net_actuation</text>
<polygon fill="none" stroke="black" points="32.5,-432 32.5,-453 299.5,-453 299.5,-432 32.5,-432"/>
<text text-anchor="start" x="41" y="-438.8" font-family="Times,serif" font-size="14.00" fill="grey">WorldModelInstance_desired_state</text>
<polygon fill="none" stroke="black" points="299.5,-432 299.5,-453 663.5,-453 663.5,-432 299.5,-432"/>
<text text-anchor="start" x="463" y="-438.8" font-family="Times,serif" font-size="14.00">state</text>
<polygon fill="none" stroke="black" points="32.5,-411 32.5,-432 299.5,-432 299.5,-411 32.5,-411"/>
<text text-anchor="start" x="35.5" y="-417.8" font-family="Times,serif" font-size="14.00" fill="grey">DefaultModelInstance_desired_state</text>
<polygon fill="none" stroke="black" points="299.5,-411 299.5,-432 663.5,-432 663.5,-411 299.5,-411"/>
<text text-anchor="start" x="440.5" y="-417.8" font-family="Times,serif" font-size="14.00">body_poses</text>
<polygon fill="none" stroke="black" points="32.5,-390 32.5,-411 299.5,-411 299.5,-390 32.5,-390"/>
<text text-anchor="start" x="99" y="-396.8" font-family="Times,serif" font-size="14.00" fill="grey">PRR_desired_state</text>
<polygon fill="none" stroke="black" points="299.5,-390 299.5,-411 663.5,-411 663.5,-390 299.5,-390"/>
<text text-anchor="start" x="420" y="-396.8" font-family="Times,serif" font-size="14.00">spatial_velocities</text>
<polygon fill="none" stroke="black" points="32.5,-369 32.5,-390 299.5,-390 299.5,-369 32.5,-369"/>
<text text-anchor="start" x="73" y="-375.8" font-family="Times,serif" font-size="14.00">applied_generalized_force</text>
<polygon fill="none" stroke="black" points="299.5,-369 299.5,-390 663.5,-390 663.5,-369 299.5,-369"/>
<text text-anchor="start" x="406.5" y="-375.8" font-family="Times,serif" font-size="14.00">spatial_accelerations</text>
<polygon fill="none" stroke="black" points="32.5,-348 32.5,-369 299.5,-369 299.5,-348 32.5,-348"/>
<text text-anchor="start" x="90.5" y="-354.8" font-family="Times,serif" font-size="14.00">applied_spatial_force</text>
<polygon fill="none" stroke="black" points="299.5,-348 299.5,-369 663.5,-369 663.5,-348 299.5,-348"/>
<text text-anchor="start" x="392.5" y="-354.8" font-family="Times,serif" font-size="14.00">generalized_acceleration</text>
<polyline fill="none" stroke="grey" points="32.5,-348 32.5,-117 299.5,-117 "/>
<polygon fill="none" stroke="black" points="299.5,-327 299.5,-348 663.5,-348 663.5,-327 299.5,-327"/>
<text text-anchor="start" x="386.5" y="-333.8" font-family="Times,serif" font-size="14.00" fill="grey">WorldModelInstance_state</text>
<polygon fill="none" stroke="black" points="299.5,-306 299.5,-327 663.5,-327 663.5,-306 299.5,-306"/>
<text text-anchor="start" x="316" y="-312.8" font-family="Times,serif" font-size="14.00" fill="grey">WorldModelInstance_generalized_acceleration</text>
<polygon fill="none" stroke="black" points="299.5,-285 299.5,-306 663.5,-306 663.5,-285 299.5,-285"/>
<text text-anchor="start" x="381" y="-291.8" font-family="Times,serif" font-size="14.00" fill="grey">DefaultModelInstance_state</text>
<polygon fill="none" stroke="black" points="299.5,-264 299.5,-285 663.5,-285 663.5,-264 299.5,-264"/>
<text text-anchor="start" x="310.5" y="-270.8" font-family="Times,serif" font-size="14.00" fill="grey">DefaultModelInstance_generalized_acceleration</text>
<polygon fill="none" stroke="black" points="299.5,-243 299.5,-264 663.5,-264 663.5,-243 299.5,-243"/>
<text text-anchor="start" x="444.5" y="-249.8" font-family="Times,serif" font-size="14.00">PRR_state</text>
<polygon fill="none" stroke="black" points="299.5,-222 299.5,-243 663.5,-243 663.5,-222 299.5,-222"/>
<text text-anchor="start" x="374" y="-228.8" font-family="Times,serif" font-size="14.00">PRR_generalized_acceleration</text>
<polygon fill="none" stroke="black" points="299.5,-201 299.5,-222 663.5,-222 663.5,-201 299.5,-201"/>
<text text-anchor="start" x="308" y="-207.8" font-family="Times,serif" font-size="14.00" fill="grey">WorldModelInstance_generalized_contact_forces</text>
<polygon fill="none" stroke="black" points="299.5,-180 299.5,-201 663.5,-201 663.5,-180 299.5,-180"/>
<text text-anchor="start" x="302.5" y="-186.8" font-family="Times,serif" font-size="14.00" fill="grey">DefaultModelInstance_generalized_contact_forces</text>
<polygon fill="none" stroke="black" points="299.5,-159 299.5,-180 663.5,-180 663.5,-159 299.5,-159"/>
<text text-anchor="start" x="366" y="-165.8" font-family="Times,serif" font-size="14.00">PRR_generalized_contact_forces</text>
<polygon fill="none" stroke="black" points="299.5,-138 299.5,-159 663.5,-159 663.5,-138 299.5,-138"/>
<text text-anchor="start" x="427" y="-144.8" font-family="Times,serif" font-size="14.00">reaction_forces</text>
<polygon fill="none" stroke="black" points="299.5,-117 299.5,-138 663.5,-138 663.5,-117 299.5,-117"/>
<text text-anchor="start" x="427" y="-123.8" font-family="Times,serif" font-size="14.00">contact_results</text>
</g>
<!-- s3 -->
<g id="node2" class="node">
<title>s3</title>
<polygon fill="none" stroke="black" points="778.5,-559 778.5,-593 971.5,-593 971.5,-559 778.5,-559"/>
<text text-anchor="start" x="827" y="-579.8" font-family="Times,serif" font-weight="bold" font-size="14.00">SceneGraph</text>
<text text-anchor="start" x="804.5" y="-565.8" font-family="Times,serif" font-size="14.00">name=scene_graph</text>
<polygon fill="none" stroke="black" points="778.5,-538 778.5,-559 923.5,-559 923.5,-538 778.5,-538"/>
<text text-anchor="start" x="812.5" y="-544.8" font-family="Times,serif" font-size="14.00">plant_pose</text>
<polygon fill="none" stroke="black" points="923.5,-517 923.5,-559 971.5,-559 971.5,-517 923.5,-517"/>
<text text-anchor="start" x="926.5" y="-534.3" font-family="Times,serif" font-size="14.00">query</text>
<polygon fill="none" stroke="black" points="778.5,-517 778.5,-538 923.5,-538 923.5,-517 778.5,-517"/>
<text text-anchor="start" x="781.5" y="-523.8" font-family="Times,serif" font-size="14.00">plant_configuration</text>
</g>
<!-- s2&#45;&gt;s3 -->
<g id="edge2" class="edge">
<title>s2:e&#45;&gt;s3:w</title>
<path fill="none" stroke="black" d="M664.5,-548C711.19,-548 725.33,-548 767.44,-548"/>
<polygon fill="black" stroke="black" points="767.5,-551.5 777.5,-548 767.5,-544.5 767.5,-551.5"/>
</g>
<!-- s50 -->
<g id="node4" class="node">
<title>s50</title>
<polygon fill="none" stroke="black" points="715.5,-163 715.5,-184 1034.5,-184 1034.5,-163 715.5,-163"/>
<text text-anchor="start" x="718.5" y="-170.8" font-family="Times,serif" font-weight="bold" font-size="14.00">__main__.PlanarPRR_inTheta_multibody</text>
<polygon fill="none" stroke="black" points="715.5,-142 715.5,-163 870.5,-163 870.5,-142 715.5,-142"/>
<text text-anchor="start" x="767" y="-148.8" font-family="Times,serif" font-size="14.00">state_q</text>
<polygon fill="none" stroke="black" points="870.5,-79 870.5,-163 1034.5,-163 1034.5,-79 870.5,-79"/>
<text text-anchor="start" x="912" y="-117.3" font-family="Times,serif" font-size="14.00">state_theta</text>
<polygon fill="none" stroke="black" points="715.5,-121 715.5,-142 870.5,-142 870.5,-121 715.5,-121"/>
<text text-anchor="start" x="776" y="-127.8" font-family="Times,serif" font-size="14.00">M(q)</text>
<polygon fill="none" stroke="black" points="715.5,-100 715.5,-121 870.5,-121 870.5,-100 715.5,-100"/>
<text text-anchor="start" x="757" y="-106.8" font-family="Times,serif" font-size="14.00">C(q, qdot)</text>
<polygon fill="none" stroke="black" points="715.5,-79 715.5,-100 870.5,-100 870.5,-79 715.5,-79"/>
<text text-anchor="start" x="788" y="-85.8" font-family="Times,serif" font-size="14.00">F</text>
</g>
<!-- s2&#45;&gt;s50 -->
<g id="edge8" class="edge">
<title>s2:e&#45;&gt;s50:w</title>
<path fill="none" stroke="black" d="M664.5,-443C726.19,-443 657.79,-184.92 704.74,-155.69"/>
<polygon fill="black" stroke="black" points="705.79,-159.03 714.5,-153 703.93,-152.28 705.79,-159.03"/>
</g>
<!-- s3&#45;&gt;s2 -->
<g id="edge3" class="edge">
<title>s3:e&#45;&gt;s2:w</title>
<path fill="none" stroke="black" d="M972.5,-538C983.62,-538 979.52,-520.7 971.5,-513 906.92,-450.95 854.12,-482.26 770,-513 715.94,-532.76 725.06,-576.74 671,-596.5 537.73,-645.2 133.86,-695.79 32.5,-596.5 20.11,-584.36 13.05,-560.35 22,-551.44"/>
<polygon fill="black" stroke="black" points="23.29,-554.69 31.5,-548 20.91,-548.11 23.29,-554.69"/>
</g>
<!-- s53 -->
<g id="node7" class="node">
<title>s53</title>
<polygon fill="none" stroke="black" points="1086.5,-544 1086.5,-592 1359.5,-592 1359.5,-544 1086.5,-544"/>
<text text-anchor="start" x="1149.5" y="-578.8" font-family="Times,serif" font-weight="bold" font-size="14.00">MeshcatVisualizer</text>
<text text-anchor="start" x="1089.5" y="-564.8" font-family="Times,serif" font-size="14.00">name=meshcat_visualizer(visualizer)</text>
<text text-anchor="start" x="1141.5" y="-550.8" font-family="Times,serif" font-size="14.00">path=/drake/visualizer</text>
<polygon fill="none" stroke="black" points="1086.5,-523 1086.5,-544 1268.5,-544 1268.5,-523 1086.5,-523"/>
<text text-anchor="start" x="1131.5" y="-529.8" font-family="Times,serif" font-size="14.00">query_object</text>
<polyline fill="none" stroke="grey" points="1268.5,-523 1359.5,-523 1359.5,-544 "/>
</g>
<!-- s3&#45;&gt;s53 -->
<g id="edge6" class="edge">
<title>s3:e&#45;&gt;s53:w</title>
<path fill="none" stroke="black" d="M972.5,-538C1019.24,-538 1033.29,-533.68 1075.43,-533.07"/>
<polygon fill="black" stroke="black" points="1075.52,-536.57 1085.5,-533 1075.48,-529.57 1075.52,-536.57"/>
</g>
<!-- s49 -->
<g id="node3" class="node">
<title>s49</title>
<polygon fill="none" stroke="black" points="213.5,-70 213.5,-91 481.5,-91 481.5,-70 213.5,-70"/>
<text text-anchor="start" x="216.5" y="-77.8" font-family="Times,serif" font-weight="bold" font-size="14.00">__main__.DynamicModelExtractor</text>
<polyline fill="none" stroke="grey" points="213.5,-70 213.5,-28 311.5,-28 "/>
<polygon fill="none" stroke="black" points="311.5,-49 311.5,-70 481.5,-70 481.5,-49 311.5,-49"/>
<text text-anchor="start" x="379.5" y="-55.8" font-family="Times,serif" font-size="14.00">M(q)</text>
<polygon fill="none" stroke="black" points="311.5,-28 311.5,-49 481.5,-49 481.5,-28 311.5,-28"/>
<text text-anchor="start" x="360.5" y="-34.8" font-family="Times,serif" font-size="14.00">C(q, qdot)</text>
</g>
<!-- s49&#45;&gt;s50 -->
<g id="edge9" class="edge">
<title>s49:e&#45;&gt;s50:w</title>
<path fill="none" stroke="black" d="M482.5,-59C568.74,-59 591.21,-72.29 671,-105 688.1,-112.01 691.26,-125.01 704.28,-129.46"/>
<polygon fill="black" stroke="black" points="704.09,-132.97 714.5,-131 705.13,-126.05 704.09,-132.97"/>
</g>
<!-- s49&#45;&gt;s50 -->
<g id="edge10" class="edge">
<title>s49:e&#45;&gt;s50:w</title>
<path fill="none" stroke="black" d="M482.5,-38C533.32,-38 646.22,-101.81 704.32,-109.29"/>
<polygon fill="black" stroke="black" points="704.28,-112.79 714.5,-110 704.77,-105.81 704.28,-112.79"/>
</g>
<!-- s51 -->
<g id="node5" class="node">
<title>s51</title>
<polygon fill="none" stroke="black" points="1122.5,-132 1122.5,-153 1323.5,-153 1323.5,-132 1122.5,-132"/>
<text text-anchor="start" x="1135.5" y="-139.8" font-family="Times,serif" font-weight="bold" font-size="14.00">__main__.PD_cartesian</text>
<polygon fill="none" stroke="black" points="1122.5,-111 1122.5,-132 1237.5,-132 1237.5,-111 1122.5,-111"/>
<text text-anchor="start" x="1161.5" y="-117.8" font-family="Times,serif" font-size="14.00">state</text>
<polygon fill="none" stroke="black" points="1237.5,-111 1237.5,-132 1323.5,-132 1323.5,-111 1237.5,-111"/>
<text text-anchor="start" x="1264.5" y="-117.8" font-family="Times,serif" font-size="14.00">F&#45;2d</text>
<polygon fill="none" stroke="black" points="1122.5,-90 1122.5,-111 1237.5,-111 1237.5,-90 1122.5,-90"/>
<text text-anchor="start" x="1125.5" y="-96.8" font-family="Times,serif" font-size="14.00">target_position</text>
<polygon fill="none" stroke="black" points="1237.5,-90 1237.5,-111 1323.5,-111 1323.5,-90 1237.5,-90"/>
<text text-anchor="start" x="1240.5" y="-96.8" font-family="Times,serif" font-size="14.00">F&#45;cartesian</text>
</g>
<!-- s50&#45;&gt;s51 -->
<g id="edge7" class="edge">
<title>s50:e&#45;&gt;s51:w</title>
<path fill="none" stroke="black" d="M1035.5,-121C1070.14,-121 1081.23,-121 1111.46,-121"/>
<polygon fill="black" stroke="black" points="1111.5,-124.5 1121.5,-121 1111.5,-117.5 1111.5,-124.5"/>
</g>
<!-- s51&#45;&gt;s50 -->
<g id="edge11" class="edge">
<title>s51:e&#45;&gt;s50:w</title>
<path fill="none" stroke="black" d="M1324.5,-121C1339.84,-121 1334.29,-97.4 1323.5,-86.5 1235.41,2.48 1167.18,-77.94 1042,-75.5 896.92,-72.67 821.83,23.25 715.5,-75.5 714.47,-76.46 713.53,-77.71 712.78,-79.06"/>
<polygon fill="black" stroke="black" points="709.35,-79.74 714.5,-89 716.25,-78.55 709.35,-79.74"/>
</g>
<!-- s52 -->
<g id="node6" class="node">
<title>s52</title>
<polygon fill="none" stroke="black" points="1411.5,-200 1411.5,-221 1748.5,-221 1748.5,-200 1411.5,-200"/>
<text text-anchor="start" x="1414.5" y="-207.8" font-family="Times,serif" font-weight="bold" font-size="14.00">__main__.F_force_trasform_to_SpatialForce</text>
<polygon fill="none" stroke="black" points="1411.5,-179 1411.5,-200 1555.5,-200 1555.5,-179 1411.5,-179"/>
<text text-anchor="start" x="1467.5" y="-185.8" font-family="Times,serif" font-size="14.00">fx,fy</text>
<polygon fill="none" stroke="black" points="1555.5,-179 1555.5,-200 1748.5,-200 1748.5,-179 1555.5,-179"/>
<text text-anchor="start" x="1612" y="-185.8" font-family="Times,serif" font-size="14.00">F&#45;cartesian</text>
</g>
<!-- s51&#45;&gt;s52 -->
<g id="edge5" class="edge">
<title>s51:e&#45;&gt;s52:w</title>
<path fill="none" stroke="black" d="M1324.5,-121C1369.42,-121 1363.2,-178.79 1400.12,-187.82"/>
<polygon fill="black" stroke="black" points="1400.17,-191.35 1410.5,-189 1400.96,-184.39 1400.17,-191.35"/>
</g>
<!-- s52&#45;&gt;s2 -->
<g id="edge4" class="edge">
<title>s52:e&#45;&gt;s2:w</title>
<path fill="none" stroke="black" d="M1749.5,-189C1755.74,-189 1753.07,-179.25 1748.5,-175 1636.12,-70.36 1552.83,-141.37 1403,-175 1069.15,-249.93 940.27,-253.7 707,-504 676.92,-536.27 707.41,-571.6 671,-596.5 612.44,-636.55 82.77,-646.56 32.5,-596.5 15.85,-579.92 7.13,-404.48 24.07,-366.31"/>
<polygon fill="black" stroke="black" points="26.82,-368.51 31.5,-359 21.92,-363.51 26.82,-368.51"/>
</g>
<!-- meshcat_in -->
<g id="node8" class="node">
<title>meshcat_in</title>
<ellipse fill="none" stroke="magenta" cx="1579.5" cy="-558" rx="50.09" ry="18"/>
<text text-anchor="middle" x="1579.5" y="-554.3" font-family="Times,serif" font-size="14.00">Meshcat</text>
</g>
<!-- s53&#45;&gt;meshcat_in -->
<g id="edge1" class="edge">
<title>s53:e&#45;&gt;meshcat_in</title>
<path fill="none" stroke="magenta" stroke-dasharray="5,2" d="M1367,-558C1418.39,-558 1476.81,-558 1519.21,-558"/>
<polygon fill="magenta" stroke="magenta" points="1519.35,-561.5 1529.35,-558 1519.35,-554.5 1519.35,-561.5"/>
</g>
</g>
</svg>
