<?xml version="1.0" encoding="UTF-8" standalone="no"?>
<!DOCTYPE svg PUBLIC "-//W3C//DTD SVG 1.1//EN"
 "http://www.w3.org/Graphics/SVG/1.1/DTD/svg11.dtd">
<!-- Generated by graphviz version 2.43.0 (0)
 -->
<!-- Title: _394 Pages: 1 -->
<svg width="1797pt" height="257pt"
 viewBox="0.00 0.00 1797.00 257.02" xmlns="http://www.w3.org/2000/svg" xmlns:xlink="http://www.w3.org/1999/xlink">
<g id="graph0" class="graph" transform="scale(1 1) rotate(0) translate(4 253.02)">
<title>_394</title>
<polygon fill="white" stroke="transparent" points="-4,4 -4,-253.02 1793,-253.02 1793,4 -4,4"/>
<g id="clust1" class="cluster">
<title>cluster394diagram</title>
<polygon fill="none" stroke="black" points="8,-18.02 8,-241.02 1781,-241.02 1781,-18.02 8,-18.02"/>
<text text-anchor="start" x="860.5" y="-222.32" font-family="Times,serif" font-weight="bold" font-size="14.00">Diagram</text>
</g>
<g id="clust2" class="cluster">
<title>cluster394subsystems</title>
<polygon fill="none" stroke="white" points="16,-26.02 16,-202.02 1773,-202.02 1773,-26.02 16,-26.02"/>
</g>
<g id="clust3" class="cluster">
<title>cluster391diagram</title>
<polygon fill="none" stroke="black" points="24,-34.02 24,-194.02 1392,-194.02 1392,-34.02 24,-34.02"/>
<text text-anchor="start" x="674.5" y="-175.82" font-family="Times,serif" font-weight="bold" font-size="14.00">Diagram</text>
<text text-anchor="start" x="653" y="-161.82" font-family="Times,serif" font-size="14.00">name=diagram</text>
</g>
<g id="clust4" class="cluster">
<title>clusters391in</title>
<polygon fill="lightgrey" stroke="lightgrey" points="32,-54.02 32,-129.02 248,-129.02 248,-54.02 32,-54.02"/>
<text text-anchor="middle" x="140" y="-113.82" font-family="Times,serif" font-size="14.00">input ports</text>
</g>
<g id="clust5" class="cluster">
<title>clusters391out</title>
<polygon fill="lightgrey" stroke="lightgrey" points="1183,-52.02 1183,-127.02 1384,-127.02 1384,-52.02 1183,-52.02"/>
<text text-anchor="middle" x="1283.5" y="-111.82" font-family="Times,serif" font-size="14.00">output ports</text>
</g>
<g id="clust6" class="cluster">
<title>cluster391subsystems</title>
<polygon fill="none" stroke="white" points="268,-42.02 268,-142.02 1163,-142.02 1163,-42.02 268,-42.02"/>
</g>
<!-- s387 -->
<g id="node1" class="node">
<title>s387</title>
<polygon fill="none" stroke="black" points="1420,-161.02 1420,-182.02 1584,-182.02 1584,-161.02 1420,-161.02"/>
<text text-anchor="start" x="1423" y="-168.82" font-family="Times,serif" font-weight="bold" font-size="14.00">__main__.PlanarPRR</text>
<polygon fill="none" stroke="black" points="1420,-140.02 1420,-161.02 1488,-161.02 1488,-140.02 1420,-140.02"/>
<text text-anchor="start" x="1449" y="-146.82" font-family="Times,serif" font-size="14.00">F</text>
<polygon fill="none" stroke="black" points="1488,-140.02 1488,-161.02 1584,-161.02 1584,-140.02 1488,-140.02"/>
<text text-anchor="start" x="1517.5" y="-146.82" font-family="Times,serif" font-size="14.00">state</text>
</g>
<!-- s391in -->
<g id="node2" class="node">
<title>s391in</title>
<polygon fill="none" stroke="blue" points="51,-69.02 51,-90.02 229,-90.02 229,-69.02 51,-69.02"/>
<text text-anchor="start" x="54" y="-75.82" font-family="Times,serif" font-size="14.00">PlanarPRR theta_q_vect</text>
</g>
<!-- s387&#45;&gt;s391in -->
<g id="edge7" class="edge">
<title>s387:e&#45;&gt;s391in:w</title>
<path fill="none" stroke="black" d="M1585,-150.02C1591.24,-150.02 1588.57,-140.27 1584,-136.02 1556.03,-109.97 1450.21,-135.16 1412,-136.02 1242.32,-139.79 1200.22,-153.02 1030.5,-153.02 713,-153.02 713,-153.02 713,-153.02 515.2,-153.02 427.55,-262.93 268,-146.02 236.26,-122.75 271.92,-85.02 240,-62.02 174.45,-14.77 -15.77,-73.03 39.95,-78.59"/>
<polygon fill="black" stroke="black" points="39.86,-82.09 50,-79.02 40.15,-75.1 39.86,-82.09"/>
</g>
<!-- s392 -->
<g id="node7" class="node">
<title>s392</title>
<polygon fill="none" stroke="black" points="1636.5,-161.02 1636.5,-182.02 1757.5,-182.02 1757.5,-161.02 1636.5,-161.02"/>
<text text-anchor="start" x="1639.5" y="-168.82" font-family="Times,serif" font-weight="bold" font-size="14.00">VectorLogSink</text>
<polygon fill="none" stroke="black" points="1636.5,-140.02 1636.5,-161.02 1712.5,-161.02 1712.5,-140.02 1636.5,-140.02"/>
<text text-anchor="start" x="1658.5" y="-146.82" font-family="Times,serif" font-size="14.00">data</text>
<polyline fill="none" stroke="grey" points="1712.5,-140.02 1757.5,-140.02 1757.5,-161.02 "/>
</g>
<!-- s387&#45;&gt;s392 -->
<g id="edge6" class="edge">
<title>s387:e&#45;&gt;s392:w</title>
<path fill="none" stroke="black" d="M1585,-150.02C1603.59,-150.02 1610.63,-150.02 1625.25,-150.02"/>
<polygon fill="black" stroke="black" points="1625.5,-153.52 1635.5,-150.02 1625.5,-146.52 1625.5,-153.52"/>
</g>
<!-- s388 -->
<g id="node4" class="node">
<title>s388</title>
<polygon fill="none" stroke="black" points="284,-96.02 284,-130.02 516,-130.02 516,-96.02 284,-96.02"/>
<text text-anchor="start" x="287" y="-116.82" font-family="Times,serif" font-weight="bold" font-size="14.00">__main__.PlanarPRR_inTheta</text>
<text text-anchor="start" x="314.5" y="-102.82" font-family="Times,serif" font-size="14.00">name=PlanarPRR theta</text>
<polygon fill="none" stroke="black" points="284,-75.02 284,-96.02 404,-96.02 404,-75.02 284,-75.02"/>
<text text-anchor="start" x="339" y="-81.82" font-family="Times,serif" font-size="14.00">F</text>
<polygon fill="none" stroke="black" points="404,-54.02 404,-96.02 516,-96.02 516,-54.02 404,-54.02"/>
<text text-anchor="start" x="441.5" y="-71.32" font-family="Times,serif" font-size="14.00">state</text>
<polygon fill="none" stroke="black" points="284,-54.02 284,-75.02 404,-75.02 404,-54.02 284,-54.02"/>
<text text-anchor="start" x="321" y="-60.82" font-family="Times,serif" font-size="14.00">q_vect</text>
</g>
<!-- s391in&#45;&gt;s388 -->
<g id="edge4" class="edge">
<title>s391in:e&#45;&gt;s388:w</title>
<path fill="none" stroke="blue" d="M230,-79.02C250.66,-79.02 256.76,-68.34 272.87,-65"/>
<polygon fill="blue" stroke="blue" points="273.39,-68.47 283,-64.02 272.71,-61.5 273.39,-68.47"/>
</g>
<!-- s391out -->
<g id="node3" class="node">
<title>s391out</title>
<polygon fill="none" stroke="green" points="1202.5,-67.02 1202.5,-88.02 1365.5,-88.02 1365.5,-67.02 1202.5,-67.02"/>
<text text-anchor="start" x="1205.5" y="-73.82" font-family="Times,serif" font-size="14.00">cartesian controller_F</text>
</g>
<!-- s391out&#45;&gt;s387 -->
<g id="edge9" class="edge">
<title>s391out:e&#45;&gt;s387:w</title>
<path fill="none" stroke="black" d="M1366.5,-77.02C1381.76,-77.02 1382.57,-88.01 1392,-100.02 1404.92,-116.46 1397.64,-139.96 1409.1,-147.55"/>
<polygon fill="black" stroke="black" points="1408.45,-151 1419,-150.02 1410.14,-144.2 1408.45,-151"/>
</g>
<!-- s393 -->
<g id="node8" class="node">
<title>s393</title>
<polygon fill="none" stroke="black" points="1442,-88.02 1442,-109.02 1563,-109.02 1563,-88.02 1442,-88.02"/>
<text text-anchor="start" x="1445" y="-95.82" font-family="Times,serif" font-weight="bold" font-size="14.00">VectorLogSink</text>
<polygon fill="none" stroke="black" points="1442,-67.02 1442,-88.02 1518,-88.02 1518,-67.02 1442,-67.02"/>
<text text-anchor="start" x="1464" y="-73.82" font-family="Times,serif" font-size="14.00">data</text>
<polyline fill="none" stroke="grey" points="1518,-67.02 1563,-67.02 1563,-88.02 "/>
</g>
<!-- s391out&#45;&gt;s393 -->
<g id="edge8" class="edge">
<title>s391out:e&#45;&gt;s393:w</title>
<path fill="none" stroke="black" d="M1366.5,-77.02C1395.99,-77.02 1405.78,-77.02 1430.96,-77.02"/>
<polygon fill="black" stroke="black" points="1431,-80.52 1441,-77.02 1431,-73.52 1431,-80.52"/>
</g>
<!-- s389 -->
<g id="node5" class="node">
<title>s389</title>
<polygon fill="none" stroke="black" points="568,-95.02 568,-129.02 860,-129.02 860,-95.02 568,-95.02"/>
<text text-anchor="start" x="571" y="-115.82" font-family="Times,serif" font-weight="bold" font-size="14.00">__main__.PlanarPRR_theta_extractor</text>
<text text-anchor="start" x="635" y="-101.82" font-family="Times,serif" font-size="14.00">name=state extractor</text>
<polygon fill="none" stroke="black" points="568,-74.02 568,-95.02 690,-95.02 690,-74.02 568,-74.02"/>
<text text-anchor="start" x="588.5" y="-80.82" font-family="Times,serif" font-size="14.00">theta_state</text>
<polygon fill="none" stroke="black" points="690,-74.02 690,-95.02 860,-95.02 860,-74.02 690,-74.02"/>
<text text-anchor="start" x="710.5" y="-80.82" font-family="Times,serif" font-size="14.00">EndEffector_state</text>
</g>
<!-- s388&#45;&gt;s389 -->
<g id="edge2" class="edge">
<title>s388:e&#45;&gt;s389:w</title>
<path fill="none" stroke="black" d="M517,-75.02C535.7,-75.02 542.23,-81.19 556.75,-83.31"/>
<polygon fill="black" stroke="black" points="556.78,-86.82 567,-84.02 557.26,-79.84 556.78,-86.82"/>
</g>
<!-- s390 -->
<g id="node6" class="node">
<title>s390</title>
<polygon fill="none" stroke="black" points="912.5,-96.02 912.5,-130.02 1147.5,-130.02 1147.5,-96.02 912.5,-96.02"/>
<text text-anchor="start" x="915.5" y="-116.82" font-family="Times,serif" font-weight="bold" font-size="14.00">__main__.CartesianController</text>
<text text-anchor="start" x="934" y="-102.82" font-family="Times,serif" font-size="14.00">name=cartesian controller</text>
<polygon fill="none" stroke="black" points="912.5,-75.02 912.5,-96.02 1073.5,-96.02 1073.5,-75.02 912.5,-75.02"/>
<text text-anchor="start" x="949.5" y="-81.82" font-family="Times,serif" font-size="14.00">actual_state</text>
<polygon fill="none" stroke="black" points="1073.5,-54.02 1073.5,-96.02 1147.5,-96.02 1147.5,-54.02 1073.5,-54.02"/>
<text text-anchor="start" x="1105.5" y="-71.32" font-family="Times,serif" font-size="14.00">F</text>
<polygon fill="none" stroke="black" points="912.5,-54.02 912.5,-75.02 1073.5,-75.02 1073.5,-54.02 912.5,-54.02"/>
<text text-anchor="start" x="944.5" y="-60.82" font-family="Times,serif" font-size="14.00">desired_state</text>
</g>
<!-- s389&#45;&gt;s390 -->
<g id="edge1" class="edge">
<title>s389:e&#45;&gt;s390:w</title>
<path fill="none" stroke="black" d="M861,-84.02C879.59,-84.02 886.63,-84.7 901.25,-84.94"/>
<polygon fill="black" stroke="black" points="901.47,-88.44 911.5,-85.02 901.53,-81.44 901.47,-88.44"/>
</g>
<!-- s390&#45;&gt;s391out -->
<g id="edge5" class="edge">
<title>s390:e&#45;&gt;s391out:w</title>
<path fill="none" stroke="green" d="M1148.5,-75.02C1168.2,-75.02 1175.53,-76.41 1191.17,-76.87"/>
<polygon fill="green" stroke="green" points="1191.45,-80.38 1201.5,-77.02 1191.55,-73.38 1191.45,-80.38"/>
</g>
<!-- s390&#45;&gt;s388 -->
<g id="edge3" class="edge">
<title>s390:e&#45;&gt;s388:w</title>
<path fill="none" stroke="black" d="M1148.5,-75.02C1159.62,-75.02 1155.52,-57.72 1147.5,-50.02 1078.31,16.46 352.8,16.85 284,-50.02 276.07,-57.73 271.04,-72.16 274.39,-79.87"/>
<polygon fill="black" stroke="black" points="272.62,-82.88 283,-85.02 276.22,-76.88 272.62,-82.88"/>
</g>
</g>
</svg>
