<?xml version="1.0" encoding="UTF-8" standalone="no"?>
<!DOCTYPE svg PUBLIC "-//W3C//DTD SVG 1.1//EN"
 "http://www.w3.org/Graphics/SVG/1.1/DTD/svg11.dtd">
<!-- Generated by graphviz version 2.43.0 (0)
 -->
<!-- Title: _65 Pages: 1 -->
<svg width="1712pt" height="485pt"
 viewBox="0.00 0.00 1712.09 485.00" xmlns="http://www.w3.org/2000/svg" xmlns:xlink="http://www.w3.org/1999/xlink">
<g id="graph0" class="graph" transform="scale(1 1) rotate(0) translate(4 481)">
<title>_65</title>
<polygon fill="white" stroke="transparent" points="-4,4 -4,-481 1708.09,-481 1708.09,4 -4,4"/>
<g id="clust1" class="cluster">
<title>cluster65diagram</title>
<polygon fill="none" stroke="black" points="8,-8 8,-469 1696.09,-469 1696.09,-8 8,-8"/>
<text text-anchor="start" x="818.05" y="-450.3" font-family="Times,serif" font-weight="bold" font-size="14.00">Diagram</text>
</g>
<g id="clust2" class="cluster">
<title>cluster65subsystems</title>
<polygon fill="none" stroke="white" points="16,-16 16,-430 1688.09,-430 1688.09,-16 16,-16"/>
</g>
<!-- s2 -->
<g id="node1" class="node">
<title>s2</title>
<polygon fill="none" stroke="black" points="335.5,-384 335.5,-418 966.5,-418 966.5,-384 335.5,-384"/>
<text text-anchor="start" x="589.5" y="-404.8" font-family="Times,serif" font-weight="bold" font-size="14.00">MultibodyPlant</text>
<text text-anchor="start" x="607" y="-390.8" font-family="Times,serif" font-size="14.00">name=plant</text>
<polygon fill="none" stroke="black" points="335.5,-363 335.5,-384 602.5,-384 602.5,-363 335.5,-363"/>
<text text-anchor="start" x="410.5" y="-369.8" font-family="Times,serif" font-size="14.00">geometry_query</text>
<polygon fill="none" stroke="black" points="602.5,-363 602.5,-384 966.5,-384 966.5,-363 602.5,-363"/>
<text text-anchor="start" x="730" y="-369.8" font-family="Times,serif" font-size="14.00">geometry_pose</text>
<polygon fill="none" stroke="black" points="335.5,-342 335.5,-363 602.5,-363 602.5,-342 335.5,-342"/>
<text text-anchor="start" x="358.5" y="-348.8" font-family="Times,serif" font-size="14.00" fill="grey">WorldModelInstance_actuation</text>
<polygon fill="none" stroke="black" points="602.5,-342 602.5,-363 966.5,-363 966.5,-342 602.5,-342"/>
<text text-anchor="start" x="766" y="-348.8" font-family="Times,serif" font-size="14.00">state</text>
<polygon fill="none" stroke="black" points="335.5,-321 335.5,-342 602.5,-342 602.5,-321 335.5,-321"/>
<text text-anchor="start" x="353" y="-327.8" font-family="Times,serif" font-size="14.00" fill="grey">DefaultModelInstance_actuation</text>
<polygon fill="none" stroke="black" points="602.5,-321 602.5,-342 966.5,-342 966.5,-321 602.5,-321"/>
<text text-anchor="start" x="743.5" y="-327.8" font-family="Times,serif" font-size="14.00">body_poses</text>
<polygon fill="none" stroke="black" points="335.5,-300 335.5,-321 602.5,-321 602.5,-300 335.5,-300"/>
<text text-anchor="start" x="373.5" y="-306.8" font-family="Times,serif" font-size="14.00">2R_planar_robot_actuation</text>
<polygon fill="none" stroke="black" points="602.5,-300 602.5,-321 966.5,-321 966.5,-300 602.5,-300"/>
<text text-anchor="start" x="723" y="-306.8" font-family="Times,serif" font-size="14.00">spatial_velocities</text>
<polygon fill="none" stroke="black" points="335.5,-279 335.5,-300 602.5,-300 602.5,-279 335.5,-279"/>
<text text-anchor="start" x="435.5" y="-285.8" font-family="Times,serif" font-size="14.00">actuation</text>
<polygon fill="none" stroke="black" points="602.5,-279 602.5,-300 966.5,-300 966.5,-279 602.5,-279"/>
<text text-anchor="start" x="709.5" y="-285.8" font-family="Times,serif" font-size="14.00">spatial_accelerations</text>
<polygon fill="none" stroke="black" points="335.5,-258 335.5,-279 602.5,-279 602.5,-258 335.5,-258"/>
<text text-anchor="start" x="344" y="-264.8" font-family="Times,serif" font-size="14.00" fill="grey">WorldModelInstance_desired_state</text>
<polygon fill="none" stroke="black" points="602.5,-258 602.5,-279 966.5,-279 966.5,-258 602.5,-258"/>
<text text-anchor="start" x="695.5" y="-264.8" font-family="Times,serif" font-size="14.00">generalized_acceleration</text>
<polygon fill="none" stroke="black" points="335.5,-237 335.5,-258 602.5,-258 602.5,-237 335.5,-237"/>
<text text-anchor="start" x="338.5" y="-243.8" font-family="Times,serif" font-size="14.00" fill="grey">DefaultModelInstance_desired_state</text>
<polygon fill="none" stroke="black" points="602.5,-237 602.5,-258 966.5,-258 966.5,-237 602.5,-237"/>
<text text-anchor="start" x="689.5" y="-243.8" font-family="Times,serif" font-size="14.00" fill="grey">WorldModelInstance_state</text>
<polygon fill="none" stroke="black" points="335.5,-216 335.5,-237 602.5,-237 602.5,-216 335.5,-216"/>
<text text-anchor="start" x="359" y="-222.8" font-family="Times,serif" font-size="14.00" fill="grey">2R_planar_robot_desired_state</text>
<polygon fill="none" stroke="black" points="602.5,-216 602.5,-237 966.5,-237 966.5,-216 602.5,-216"/>
<text text-anchor="start" x="619" y="-222.8" font-family="Times,serif" font-size="14.00" fill="grey">WorldModelInstance_generalized_acceleration</text>
<polygon fill="none" stroke="black" points="335.5,-195 335.5,-216 602.5,-216 602.5,-195 335.5,-195"/>
<text text-anchor="start" x="376" y="-201.8" font-family="Times,serif" font-size="14.00">applied_generalized_force</text>
<polygon fill="none" stroke="black" points="602.5,-195 602.5,-216 966.5,-216 966.5,-195 602.5,-195"/>
<text text-anchor="start" x="684" y="-201.8" font-family="Times,serif" font-size="14.00" fill="grey">DefaultModelInstance_state</text>
<polygon fill="none" stroke="black" points="335.5,-174 335.5,-195 602.5,-195 602.5,-174 335.5,-174"/>
<text text-anchor="start" x="393.5" y="-180.8" font-family="Times,serif" font-size="14.00">applied_spatial_force</text>
<polygon fill="none" stroke="black" points="602.5,-174 602.5,-195 966.5,-195 966.5,-174 602.5,-174"/>
<text text-anchor="start" x="613.5" y="-180.8" font-family="Times,serif" font-size="14.00" fill="grey">DefaultModelInstance_generalized_acceleration</text>
<polyline fill="none" stroke="grey" points="335.5,-174 335.5,-27 602.5,-27 "/>
<polygon fill="none" stroke="black" points="602.5,-153 602.5,-174 966.5,-174 966.5,-153 602.5,-153"/>
<text text-anchor="start" x="704.5" y="-159.8" font-family="Times,serif" font-size="14.00">2R_planar_robot_state</text>
<polygon fill="none" stroke="black" points="602.5,-132 602.5,-153 966.5,-153 966.5,-132 602.5,-132"/>
<text text-anchor="start" x="634" y="-138.8" font-family="Times,serif" font-size="14.00">2R_planar_robot_generalized_acceleration</text>
<polygon fill="none" stroke="black" points="602.5,-111 602.5,-132 966.5,-132 966.5,-111 602.5,-111"/>
<text text-anchor="start" x="611" y="-117.8" font-family="Times,serif" font-size="14.00" fill="grey">WorldModelInstance_generalized_contact_forces</text>
<polygon fill="none" stroke="black" points="602.5,-90 602.5,-111 966.5,-111 966.5,-90 602.5,-90"/>
<text text-anchor="start" x="605.5" y="-96.8" font-family="Times,serif" font-size="14.00" fill="grey">DefaultModelInstance_generalized_contact_forces</text>
<polygon fill="none" stroke="black" points="602.5,-69 602.5,-90 966.5,-90 966.5,-69 602.5,-69"/>
<text text-anchor="start" x="626" y="-75.8" font-family="Times,serif" font-size="14.00">2R_planar_robot_generalized_contact_forces</text>
<polygon fill="none" stroke="black" points="602.5,-48 602.5,-69 966.5,-69 966.5,-48 602.5,-48"/>
<text text-anchor="start" x="730" y="-54.8" font-family="Times,serif" font-size="14.00">reaction_forces</text>
<polygon fill="none" stroke="black" points="602.5,-27 602.5,-48 966.5,-48 966.5,-27 602.5,-27"/>
<text text-anchor="start" x="730" y="-33.8" font-family="Times,serif" font-size="14.00">contact_results</text>
</g>
<!-- s3 -->
<g id="node2" class="node">
<title>s3</title>
<polygon fill="none" stroke="black" points="1018.5,-384 1018.5,-418 1211.5,-418 1211.5,-384 1018.5,-384"/>
<text text-anchor="start" x="1067" y="-404.8" font-family="Times,serif" font-weight="bold" font-size="14.00">SceneGraph</text>
<text text-anchor="start" x="1044.5" y="-390.8" font-family="Times,serif" font-size="14.00">name=scene_graph</text>
<polygon fill="none" stroke="black" points="1018.5,-363 1018.5,-384 1163.5,-384 1163.5,-363 1018.5,-363"/>
<text text-anchor="start" x="1052.5" y="-369.8" font-family="Times,serif" font-size="14.00">plant_pose</text>
<polygon fill="none" stroke="black" points="1163.5,-342 1163.5,-384 1211.5,-384 1211.5,-342 1163.5,-342"/>
<text text-anchor="start" x="1166.5" y="-359.3" font-family="Times,serif" font-size="14.00">query</text>
<polygon fill="none" stroke="black" points="1018.5,-342 1018.5,-363 1163.5,-363 1163.5,-342 1018.5,-342"/>
<text text-anchor="start" x="1021.5" y="-348.8" font-family="Times,serif" font-size="14.00">plant_configuration</text>
</g>
<!-- s2&#45;&gt;s3 -->
<g id="edge2" class="edge">
<title>s2:e&#45;&gt;s3:w</title>
<path fill="none" stroke="black" d="M967.5,-374C985.91,-374 992.87,-373.31 1007.35,-373.08"/>
<polygon fill="black" stroke="black" points="1007.53,-376.58 1017.5,-373 1007.47,-369.58 1007.53,-376.58"/>
</g>
<!-- s3&#45;&gt;s2 -->
<g id="edge3" class="edge">
<title>s3:e&#45;&gt;s2:w</title>
<path fill="none" stroke="black" d="M1212.5,-363C1232,-363 1197.07,-214.36 1010,-338 975.94,-360.51 1008.06,-399.99 974,-422.5 914.81,-461.62 386.18,-472.15 335.5,-422.5 323.11,-410.36 316.05,-386.35 325,-377.44"/>
<polygon fill="black" stroke="black" points="326.29,-380.69 334.5,-374 323.91,-374.11 326.29,-380.69"/>
</g>
<!-- s45 -->
<g id="node5" class="node">
<title>s45</title>
<polygon fill="none" stroke="black" points="1263.5,-369 1263.5,-417 1536.5,-417 1536.5,-369 1263.5,-369"/>
<text text-anchor="start" x="1326.5" y="-403.8" font-family="Times,serif" font-weight="bold" font-size="14.00">MeshcatVisualizer</text>
<text text-anchor="start" x="1266.5" y="-389.8" font-family="Times,serif" font-size="14.00">name=meshcat_visualizer(visualizer)</text>
<text text-anchor="start" x="1318.5" y="-375.8" font-family="Times,serif" font-size="14.00">path=/drake/visualizer</text>
<polygon fill="none" stroke="black" points="1263.5,-348 1263.5,-369 1445.5,-369 1445.5,-348 1263.5,-348"/>
<text text-anchor="start" x="1308.5" y="-354.8" font-family="Times,serif" font-size="14.00">query_object</text>
<polyline fill="none" stroke="grey" points="1445.5,-348 1536.5,-348 1536.5,-369 "/>
</g>
<!-- s3&#45;&gt;s45 -->
<g id="edge6" class="edge">
<title>s3:e&#45;&gt;s45:w</title>
<path fill="none" stroke="black" d="M1212.5,-363C1230.99,-363 1237.83,-359.57 1252.32,-358.39"/>
<polygon fill="black" stroke="black" points="1252.64,-361.88 1262.5,-358 1252.37,-354.89 1252.64,-361.88"/>
</g>
<!-- s17 -->
<g id="node3" class="node">
<title>s17</title>
<polygon fill="none" stroke="black" points="78.5,-301 78.5,-335 237.5,-335 237.5,-301 78.5,-301"/>
<text text-anchor="start" x="81.5" y="-321.8" font-family="Times,serif" font-weight="bold" font-size="14.00">__main__.Controller</text>
<text text-anchor="start" x="97.5" y="-307.8" font-family="Times,serif" font-size="14.00">name=controller</text>
<polyline fill="none" stroke="grey" points="78.5,-301 78.5,-280 153.5,-280 "/>
<polygon fill="none" stroke="black" points="153.5,-280 153.5,-301 237.5,-301 237.5,-280 153.5,-280"/>
<text text-anchor="start" x="191" y="-286.8" font-family="Times,serif" font-size="14.00">y</text>
</g>
<!-- s17&#45;&gt;s2 -->
<g id="edge4" class="edge">
<title>s17:e&#45;&gt;s2:w</title>
<path fill="none" stroke="black" d="M238.5,-290C277.5,-290 289.76,-290 324.17,-290"/>
<polygon fill="black" stroke="black" points="324.5,-293.5 334.5,-290 324.5,-286.5 324.5,-293.5"/>
</g>
<!-- s44 -->
<g id="node4" class="node">
<title>s44</title>
<polygon fill="none" stroke="black" points="32.5,-195 32.5,-216 283.5,-216 283.5,-195 32.5,-195"/>
<text text-anchor="start" x="35.5" y="-202.8" font-family="Times,serif" font-weight="bold" font-size="14.00">__main__.CartesianForceEE_Sys</text>
<polyline fill="none" stroke="grey" points="32.5,-195 32.5,-174 117.5,-174 "/>
<polygon fill="none" stroke="black" points="117.5,-174 117.5,-195 283.5,-195 283.5,-174 117.5,-174"/>
<text text-anchor="start" x="160.5" y="-180.8" font-family="Times,serif" font-size="14.00">F&#45;cartesian</text>
</g>
<!-- s44&#45;&gt;s2 -->
<g id="edge5" class="edge">
<title>s44:e&#45;&gt;s2:w</title>
<path fill="none" stroke="black" d="M284.5,-184C302.9,-184 309.88,-184 324.35,-184"/>
<polygon fill="black" stroke="black" points="324.5,-187.5 334.5,-184 324.5,-180.5 324.5,-187.5"/>
</g>
<!-- meshcat_in -->
<g id="node6" class="node">
<title>meshcat_in</title>
<ellipse fill="none" stroke="magenta" cx="1630.05" cy="-383" rx="50.09" ry="18"/>
<text text-anchor="middle" x="1630.05" y="-379.3" font-family="Times,serif" font-size="14.00">Meshcat</text>
</g>
<!-- s45&#45;&gt;meshcat_in -->
<g id="edge1" class="edge">
<title>s45:e&#45;&gt;meshcat_in</title>
<path fill="none" stroke="magenta" stroke-dasharray="5,2" d="M1544,-383C1552.19,-383 1560.82,-383 1569.32,-383"/>
<polygon fill="magenta" stroke="magenta" points="1569.58,-386.5 1579.58,-383 1569.58,-379.5 1569.58,-386.5"/>
</g>
</g>
</svg>
