<?xml version="1.0" encoding="UTF-8" standalone="no"?>
<!DOCTYPE svg PUBLIC "-//W3C//DTD SVG 1.1//EN"
 "http://www.w3.org/Graphics/SVG/1.1/DTD/svg11.dtd">
<!-- Generated by graphviz version 2.43.0 (0)
 -->
<!-- Title: _56 Pages: 1 -->
<svg width="1409pt" height="485pt"
 viewBox="0.00 0.00 1409.09 485.00" xmlns="http://www.w3.org/2000/svg" xmlns:xlink="http://www.w3.org/1999/xlink">
<g id="graph0" class="graph" transform="scale(1 1) rotate(0) translate(4 481)">
<title>_56</title>
<polygon fill="white" stroke="transparent" points="-4,4 -4,-481 1405.09,-481 1405.09,4 -4,4"/>
<g id="clust1" class="cluster">
<title>cluster56diagram</title>
<polygon fill="none" stroke="black" points="8,-8 8,-469 1393.09,-469 1393.09,-8 8,-8"/>
<text text-anchor="start" x="666.55" y="-450.3" font-family="Times,serif" font-weight="bold" font-size="14.00">Diagram</text>
</g>
<g id="clust2" class="cluster">
<title>cluster56subsystems</title>
<polygon fill="none" stroke="white" points="16,-16 16,-430 1385.09,-430 1385.09,-16 16,-16"/>
</g>
<!-- s2 -->
<g id="node1" class="node">
<title>s2</title>
<polygon fill="none" stroke="black" points="32.5,-384 32.5,-418 663.5,-418 663.5,-384 32.5,-384"/>
<text text-anchor="start" x="286.5" y="-404.8" font-family="Times,serif" font-weight="bold" font-size="14.00">MultibodyPlant</text>
<text text-anchor="start" x="304" y="-390.8" font-family="Times,serif" font-size="14.00">name=plant</text>
<polygon fill="none" stroke="black" points="32.5,-363 32.5,-384 299.5,-384 299.5,-363 32.5,-363"/>
<text text-anchor="start" x="107.5" y="-369.8" font-family="Times,serif" font-size="14.00">geometry_query</text>
<polygon fill="none" stroke="black" points="299.5,-363 299.5,-384 663.5,-384 663.5,-363 299.5,-363"/>
<text text-anchor="start" x="427" y="-369.8" font-family="Times,serif" font-size="14.00">geometry_pose</text>
<polygon fill="none" stroke="black" points="32.5,-342 32.5,-363 299.5,-363 299.5,-342 32.5,-342"/>
<text text-anchor="start" x="55.5" y="-348.8" font-family="Times,serif" font-size="14.00" fill="grey">WorldModelInstance_actuation</text>
<polygon fill="none" stroke="black" points="299.5,-342 299.5,-363 663.5,-363 663.5,-342 299.5,-342"/>
<text text-anchor="start" x="463" y="-348.8" font-family="Times,serif" font-size="14.00">state</text>
<polygon fill="none" stroke="black" points="32.5,-321 32.5,-342 299.5,-342 299.5,-321 32.5,-321"/>
<text text-anchor="start" x="50" y="-327.8" font-family="Times,serif" font-size="14.00" fill="grey">DefaultModelInstance_actuation</text>
<polygon fill="none" stroke="black" points="299.5,-321 299.5,-342 663.5,-342 663.5,-321 299.5,-321"/>
<text text-anchor="start" x="440.5" y="-327.8" font-family="Times,serif" font-size="14.00">body_poses</text>
<polygon fill="none" stroke="black" points="32.5,-300 32.5,-321 299.5,-321 299.5,-300 32.5,-300"/>
<text text-anchor="start" x="70.5" y="-306.8" font-family="Times,serif" font-size="14.00">2R_planar_robot_actuation</text>
<polygon fill="none" stroke="black" points="299.5,-300 299.5,-321 663.5,-321 663.5,-300 299.5,-300"/>
<text text-anchor="start" x="420" y="-306.8" font-family="Times,serif" font-size="14.00">spatial_velocities</text>
<polygon fill="none" stroke="black" points="32.5,-279 32.5,-300 299.5,-300 299.5,-279 32.5,-279"/>
<text text-anchor="start" x="132.5" y="-285.8" font-family="Times,serif" font-size="14.00">actuation</text>
<polygon fill="none" stroke="black" points="299.5,-279 299.5,-300 663.5,-300 663.5,-279 299.5,-279"/>
<text text-anchor="start" x="406.5" y="-285.8" font-family="Times,serif" font-size="14.00">spatial_accelerations</text>
<polygon fill="none" stroke="black" points="32.5,-258 32.5,-279 299.5,-279 299.5,-258 32.5,-258"/>
<text text-anchor="start" x="41" y="-264.8" font-family="Times,serif" font-size="14.00" fill="grey">WorldModelInstance_desired_state</text>
<polygon fill="none" stroke="black" points="299.5,-258 299.5,-279 663.5,-279 663.5,-258 299.5,-258"/>
<text text-anchor="start" x="392.5" y="-264.8" font-family="Times,serif" font-size="14.00">generalized_acceleration</text>
<polygon fill="none" stroke="black" points="32.5,-237 32.5,-258 299.5,-258 299.5,-237 32.5,-237"/>
<text text-anchor="start" x="35.5" y="-243.8" font-family="Times,serif" font-size="14.00" fill="grey">DefaultModelInstance_desired_state</text>
<polygon fill="none" stroke="black" points="299.5,-237 299.5,-258 663.5,-258 663.5,-237 299.5,-237"/>
<text text-anchor="start" x="386.5" y="-243.8" font-family="Times,serif" font-size="14.00" fill="grey">WorldModelInstance_state</text>
<polygon fill="none" stroke="black" points="32.5,-216 32.5,-237 299.5,-237 299.5,-216 32.5,-216"/>
<text text-anchor="start" x="56" y="-222.8" font-family="Times,serif" font-size="14.00" fill="grey">2R_planar_robot_desired_state</text>
<polygon fill="none" stroke="black" points="299.5,-216 299.5,-237 663.5,-237 663.5,-216 299.5,-216"/>
<text text-anchor="start" x="316" y="-222.8" font-family="Times,serif" font-size="14.00" fill="grey">WorldModelInstance_generalized_acceleration</text>
<polygon fill="none" stroke="black" points="32.5,-195 32.5,-216 299.5,-216 299.5,-195 32.5,-195"/>
<text text-anchor="start" x="73" y="-201.8" font-family="Times,serif" font-size="14.00">applied_generalized_force</text>
<polygon fill="none" stroke="black" points="299.5,-195 299.5,-216 663.5,-216 663.5,-195 299.5,-195"/>
<text text-anchor="start" x="381" y="-201.8" font-family="Times,serif" font-size="14.00" fill="grey">DefaultModelInstance_state</text>
<polygon fill="none" stroke="black" points="32.5,-174 32.5,-195 299.5,-195 299.5,-174 32.5,-174"/>
<text text-anchor="start" x="90.5" y="-180.8" font-family="Times,serif" font-size="14.00">applied_spatial_force</text>
<polygon fill="none" stroke="black" points="299.5,-174 299.5,-195 663.5,-195 663.5,-174 299.5,-174"/>
<text text-anchor="start" x="310.5" y="-180.8" font-family="Times,serif" font-size="14.00" fill="grey">DefaultModelInstance_generalized_acceleration</text>
<polyline fill="none" stroke="grey" points="32.5,-174 32.5,-27 299.5,-27 "/>
<polygon fill="none" stroke="black" points="299.5,-153 299.5,-174 663.5,-174 663.5,-153 299.5,-153"/>
<text text-anchor="start" x="401.5" y="-159.8" font-family="Times,serif" font-size="14.00">2R_planar_robot_state</text>
<polygon fill="none" stroke="black" points="299.5,-132 299.5,-153 663.5,-153 663.5,-132 299.5,-132"/>
<text text-anchor="start" x="331" y="-138.8" font-family="Times,serif" font-size="14.00">2R_planar_robot_generalized_acceleration</text>
<polygon fill="none" stroke="black" points="299.5,-111 299.5,-132 663.5,-132 663.5,-111 299.5,-111"/>
<text text-anchor="start" x="308" y="-117.8" font-family="Times,serif" font-size="14.00" fill="grey">WorldModelInstance_generalized_contact_forces</text>
<polygon fill="none" stroke="black" points="299.5,-90 299.5,-111 663.5,-111 663.5,-90 299.5,-90"/>
<text text-anchor="start" x="302.5" y="-96.8" font-family="Times,serif" font-size="14.00" fill="grey">DefaultModelInstance_generalized_contact_forces</text>
<polygon fill="none" stroke="black" points="299.5,-69 299.5,-90 663.5,-90 663.5,-69 299.5,-69"/>
<text text-anchor="start" x="323" y="-75.8" font-family="Times,serif" font-size="14.00">2R_planar_robot_generalized_contact_forces</text>
<polygon fill="none" stroke="black" points="299.5,-48 299.5,-69 663.5,-69 663.5,-48 299.5,-48"/>
<text text-anchor="start" x="427" y="-54.8" font-family="Times,serif" font-size="14.00">reaction_forces</text>
<polygon fill="none" stroke="black" points="299.5,-27 299.5,-48 663.5,-48 663.5,-27 299.5,-27"/>
<text text-anchor="start" x="427" y="-33.8" font-family="Times,serif" font-size="14.00">contact_results</text>
</g>
<!-- s3 -->
<g id="node2" class="node">
<title>s3</title>
<polygon fill="none" stroke="black" points="715.5,-384 715.5,-418 908.5,-418 908.5,-384 715.5,-384"/>
<text text-anchor="start" x="764" y="-404.8" font-family="Times,serif" font-weight="bold" font-size="14.00">SceneGraph</text>
<text text-anchor="start" x="741.5" y="-390.8" font-family="Times,serif" font-size="14.00">name=scene_graph</text>
<polygon fill="none" stroke="black" points="715.5,-363 715.5,-384 860.5,-384 860.5,-363 715.5,-363"/>
<text text-anchor="start" x="749.5" y="-369.8" font-family="Times,serif" font-size="14.00">plant_pose</text>
<polygon fill="none" stroke="black" points="860.5,-342 860.5,-384 908.5,-384 908.5,-342 860.5,-342"/>
<text text-anchor="start" x="863.5" y="-359.3" font-family="Times,serif" font-size="14.00">query</text>
<polygon fill="none" stroke="black" points="715.5,-342 715.5,-363 860.5,-363 860.5,-342 715.5,-342"/>
<text text-anchor="start" x="718.5" y="-348.8" font-family="Times,serif" font-size="14.00">plant_configuration</text>
</g>
<!-- s2&#45;&gt;s3 -->
<g id="edge2" class="edge">
<title>s2:e&#45;&gt;s3:w</title>
<path fill="none" stroke="black" d="M664.5,-374C682.91,-374 689.87,-373.31 704.35,-373.08"/>
<polygon fill="black" stroke="black" points="704.53,-376.58 714.5,-373 704.47,-369.58 704.53,-376.58"/>
</g>
<!-- s3&#45;&gt;s2 -->
<g id="edge3" class="edge">
<title>s3:e&#45;&gt;s2:w</title>
<path fill="none" stroke="black" d="M909.5,-363C929,-363 894.07,-214.36 707,-338 672.94,-360.51 705.06,-399.99 671,-422.5 611.81,-461.62 83.18,-472.15 32.5,-422.5 20.11,-410.36 13.05,-386.35 22,-377.44"/>
<polygon fill="black" stroke="black" points="23.29,-380.69 31.5,-374 20.91,-374.11 23.29,-380.69"/>
</g>
<!-- s36 -->
<g id="node3" class="node">
<title>s36</title>
<polygon fill="none" stroke="black" points="960.5,-369 960.5,-417 1233.5,-417 1233.5,-369 960.5,-369"/>
<text text-anchor="start" x="1023.5" y="-403.8" font-family="Times,serif" font-weight="bold" font-size="14.00">MeshcatVisualizer</text>
<text text-anchor="start" x="963.5" y="-389.8" font-family="Times,serif" font-size="14.00">name=meshcat_visualizer(visualizer)</text>
<text text-anchor="start" x="1015.5" y="-375.8" font-family="Times,serif" font-size="14.00">path=/drake/visualizer</text>
<polygon fill="none" stroke="black" points="960.5,-348 960.5,-369 1142.5,-369 1142.5,-348 960.5,-348"/>
<text text-anchor="start" x="1005.5" y="-354.8" font-family="Times,serif" font-size="14.00">query_object</text>
<polyline fill="none" stroke="grey" points="1142.5,-348 1233.5,-348 1233.5,-369 "/>
</g>
<!-- s3&#45;&gt;s36 -->
<g id="edge4" class="edge">
<title>s3:e&#45;&gt;s36:w</title>
<path fill="none" stroke="black" d="M909.5,-363C927.99,-363 934.83,-359.57 949.32,-358.39"/>
<polygon fill="black" stroke="black" points="949.64,-361.88 959.5,-358 949.37,-354.89 949.64,-361.88"/>
</g>
<!-- meshcat_in -->
<g id="node4" class="node">
<title>meshcat_in</title>
<ellipse fill="none" stroke="magenta" cx="1327.05" cy="-383" rx="50.09" ry="18"/>
<text text-anchor="middle" x="1327.05" y="-379.3" font-family="Times,serif" font-size="14.00">Meshcat</text>
</g>
<!-- s36&#45;&gt;meshcat_in -->
<g id="edge1" class="edge">
<title>s36:e&#45;&gt;meshcat_in</title>
<path fill="none" stroke="magenta" stroke-dasharray="5,2" d="M1241,-383C1249.19,-383 1257.82,-383 1266.32,-383"/>
<polygon fill="magenta" stroke="magenta" points="1266.58,-386.5 1276.58,-383 1266.58,-379.5 1266.58,-386.5"/>
</g>
</g>
</svg>
