<?xml version="1.0" encoding="UTF-8" standalone="no"?>
<!DOCTYPE svg PUBLIC "-//W3C//DTD SVG 1.1//EN"
 "http://www.w3.org/Graphics/SVG/1.1/DTD/svg11.dtd">
<!-- Generated by graphviz version 2.43.0 (0)
 -->
<!-- Title: _116 Pages: 1 -->
<svg width="1620pt" height="485pt"
 viewBox="0.00 0.00 1620.09 485.00" xmlns="http://www.w3.org/2000/svg" xmlns:xlink="http://www.w3.org/1999/xlink">
<g id="graph0" class="graph" transform="scale(1 1) rotate(0) translate(4 481)">
<title>_116</title>
<polygon fill="white" stroke="transparent" points="-4,4 -4,-481 1616.09,-481 1616.09,4 -4,4"/>
<g id="clust1" class="cluster">
<title>cluster116diagram</title>
<polygon fill="none" stroke="black" points="8,-8 8,-469 1604.09,-469 1604.09,-8 8,-8"/>
<text text-anchor="start" x="772.05" y="-450.3" font-family="Times,serif" font-weight="bold" font-size="14.00">Diagram</text>
</g>
<g id="clust2" class="cluster">
<title>cluster116subsystems</title>
<polygon fill="none" stroke="white" points="16,-16 16,-430 1596.09,-430 1596.09,-16 16,-16"/>
</g>
<!-- s62 -->
<g id="node1" class="node">
<title>s62</title>
<polygon fill="none" stroke="black" points="243.5,-384 243.5,-418 874.5,-418 874.5,-384 243.5,-384"/>
<text text-anchor="start" x="497.5" y="-404.8" font-family="Times,serif" font-weight="bold" font-size="14.00">MultibodyPlant</text>
<text text-anchor="start" x="515" y="-390.8" font-family="Times,serif" font-size="14.00">name=plant</text>
<polygon fill="none" stroke="black" points="243.5,-363 243.5,-384 510.5,-384 510.5,-363 243.5,-363"/>
<text text-anchor="start" x="318.5" y="-369.8" font-family="Times,serif" font-size="14.00">geometry_query</text>
<polygon fill="none" stroke="black" points="510.5,-363 510.5,-384 874.5,-384 874.5,-363 510.5,-363"/>
<text text-anchor="start" x="638" y="-369.8" font-family="Times,serif" font-size="14.00">geometry_pose</text>
<polygon fill="none" stroke="black" points="243.5,-342 243.5,-363 510.5,-363 510.5,-342 243.5,-342"/>
<text text-anchor="start" x="266.5" y="-348.8" font-family="Times,serif" font-size="14.00" fill="grey">WorldModelInstance_actuation</text>
<polygon fill="none" stroke="black" points="510.5,-342 510.5,-363 874.5,-363 874.5,-342 510.5,-342"/>
<text text-anchor="start" x="674" y="-348.8" font-family="Times,serif" font-size="14.00">state</text>
<polygon fill="none" stroke="black" points="243.5,-321 243.5,-342 510.5,-342 510.5,-321 243.5,-321"/>
<text text-anchor="start" x="261" y="-327.8" font-family="Times,serif" font-size="14.00" fill="grey">DefaultModelInstance_actuation</text>
<polygon fill="none" stroke="black" points="510.5,-321 510.5,-342 874.5,-342 874.5,-321 510.5,-321"/>
<text text-anchor="start" x="651.5" y="-327.8" font-family="Times,serif" font-size="14.00">body_poses</text>
<polygon fill="none" stroke="black" points="243.5,-300 243.5,-321 510.5,-321 510.5,-300 243.5,-300"/>
<text text-anchor="start" x="281.5" y="-306.8" font-family="Times,serif" font-size="14.00">2R_planar_robot_actuation</text>
<polygon fill="none" stroke="black" points="510.5,-300 510.5,-321 874.5,-321 874.5,-300 510.5,-300"/>
<text text-anchor="start" x="631" y="-306.8" font-family="Times,serif" font-size="14.00">spatial_velocities</text>
<polygon fill="none" stroke="black" points="243.5,-279 243.5,-300 510.5,-300 510.5,-279 243.5,-279"/>
<text text-anchor="start" x="343.5" y="-285.8" font-family="Times,serif" font-size="14.00">actuation</text>
<polygon fill="none" stroke="black" points="510.5,-279 510.5,-300 874.5,-300 874.5,-279 510.5,-279"/>
<text text-anchor="start" x="617.5" y="-285.8" font-family="Times,serif" font-size="14.00">spatial_accelerations</text>
<polygon fill="none" stroke="black" points="243.5,-258 243.5,-279 510.5,-279 510.5,-258 243.5,-258"/>
<text text-anchor="start" x="252" y="-264.8" font-family="Times,serif" font-size="14.00" fill="grey">WorldModelInstance_desired_state</text>
<polygon fill="none" stroke="black" points="510.5,-258 510.5,-279 874.5,-279 874.5,-258 510.5,-258"/>
<text text-anchor="start" x="603.5" y="-264.8" font-family="Times,serif" font-size="14.00">generalized_acceleration</text>
<polygon fill="none" stroke="black" points="243.5,-237 243.5,-258 510.5,-258 510.5,-237 243.5,-237"/>
<text text-anchor="start" x="246.5" y="-243.8" font-family="Times,serif" font-size="14.00" fill="grey">DefaultModelInstance_desired_state</text>
<polygon fill="none" stroke="black" points="510.5,-237 510.5,-258 874.5,-258 874.5,-237 510.5,-237"/>
<text text-anchor="start" x="597.5" y="-243.8" font-family="Times,serif" font-size="14.00" fill="grey">WorldModelInstance_state</text>
<polygon fill="none" stroke="black" points="243.5,-216 243.5,-237 510.5,-237 510.5,-216 243.5,-216"/>
<text text-anchor="start" x="267" y="-222.8" font-family="Times,serif" font-size="14.00" fill="grey">2R_planar_robot_desired_state</text>
<polygon fill="none" stroke="black" points="510.5,-216 510.5,-237 874.5,-237 874.5,-216 510.5,-216"/>
<text text-anchor="start" x="527" y="-222.8" font-family="Times,serif" font-size="14.00" fill="grey">WorldModelInstance_generalized_acceleration</text>
<polygon fill="none" stroke="black" points="243.5,-195 243.5,-216 510.5,-216 510.5,-195 243.5,-195"/>
<text text-anchor="start" x="284" y="-201.8" font-family="Times,serif" font-size="14.00">applied_generalized_force</text>
<polygon fill="none" stroke="black" points="510.5,-195 510.5,-216 874.5,-216 874.5,-195 510.5,-195"/>
<text text-anchor="start" x="592" y="-201.8" font-family="Times,serif" font-size="14.00" fill="grey">DefaultModelInstance_state</text>
<polygon fill="none" stroke="black" points="243.5,-174 243.5,-195 510.5,-195 510.5,-174 243.5,-174"/>
<text text-anchor="start" x="301.5" y="-180.8" font-family="Times,serif" font-size="14.00">applied_spatial_force</text>
<polygon fill="none" stroke="black" points="510.5,-174 510.5,-195 874.5,-195 874.5,-174 510.5,-174"/>
<text text-anchor="start" x="521.5" y="-180.8" font-family="Times,serif" font-size="14.00" fill="grey">DefaultModelInstance_generalized_acceleration</text>
<polyline fill="none" stroke="grey" points="243.5,-174 243.5,-27 510.5,-27 "/>
<polygon fill="none" stroke="black" points="510.5,-153 510.5,-174 874.5,-174 874.5,-153 510.5,-153"/>
<text text-anchor="start" x="612.5" y="-159.8" font-family="Times,serif" font-size="14.00">2R_planar_robot_state</text>
<polygon fill="none" stroke="black" points="510.5,-132 510.5,-153 874.5,-153 874.5,-132 510.5,-132"/>
<text text-anchor="start" x="542" y="-138.8" font-family="Times,serif" font-size="14.00">2R_planar_robot_generalized_acceleration</text>
<polygon fill="none" stroke="black" points="510.5,-111 510.5,-132 874.5,-132 874.5,-111 510.5,-111"/>
<text text-anchor="start" x="519" y="-117.8" font-family="Times,serif" font-size="14.00" fill="grey">WorldModelInstance_generalized_contact_forces</text>
<polygon fill="none" stroke="black" points="510.5,-90 510.5,-111 874.5,-111 874.5,-90 510.5,-90"/>
<text text-anchor="start" x="513.5" y="-96.8" font-family="Times,serif" font-size="14.00" fill="grey">DefaultModelInstance_generalized_contact_forces</text>
<polygon fill="none" stroke="black" points="510.5,-69 510.5,-90 874.5,-90 874.5,-69 510.5,-69"/>
<text text-anchor="start" x="534" y="-75.8" font-family="Times,serif" font-size="14.00">2R_planar_robot_generalized_contact_forces</text>
<polygon fill="none" stroke="black" points="510.5,-48 510.5,-69 874.5,-69 874.5,-48 510.5,-48"/>
<text text-anchor="start" x="638" y="-54.8" font-family="Times,serif" font-size="14.00">reaction_forces</text>
<polygon fill="none" stroke="black" points="510.5,-27 510.5,-48 874.5,-48 874.5,-27 510.5,-27"/>
<text text-anchor="start" x="638" y="-33.8" font-family="Times,serif" font-size="14.00">contact_results</text>
</g>
<!-- s63 -->
<g id="node2" class="node">
<title>s63</title>
<polygon fill="none" stroke="black" points="926.5,-384 926.5,-418 1119.5,-418 1119.5,-384 926.5,-384"/>
<text text-anchor="start" x="975" y="-404.8" font-family="Times,serif" font-weight="bold" font-size="14.00">SceneGraph</text>
<text text-anchor="start" x="952.5" y="-390.8" font-family="Times,serif" font-size="14.00">name=scene_graph</text>
<polygon fill="none" stroke="black" points="926.5,-363 926.5,-384 1071.5,-384 1071.5,-363 926.5,-363"/>
<text text-anchor="start" x="960.5" y="-369.8" font-family="Times,serif" font-size="14.00">plant_pose</text>
<polygon fill="none" stroke="black" points="1071.5,-342 1071.5,-384 1119.5,-384 1119.5,-342 1071.5,-342"/>
<text text-anchor="start" x="1074.5" y="-359.3" font-family="Times,serif" font-size="14.00">query</text>
<polygon fill="none" stroke="black" points="926.5,-342 926.5,-363 1071.5,-363 1071.5,-342 926.5,-342"/>
<text text-anchor="start" x="929.5" y="-348.8" font-family="Times,serif" font-size="14.00">plant_configuration</text>
</g>
<!-- s62&#45;&gt;s63 -->
<g id="edge3" class="edge">
<title>s62:e&#45;&gt;s63:w</title>
<path fill="none" stroke="black" d="M875.5,-374C893.91,-374 900.87,-373.31 915.35,-373.08"/>
<polygon fill="black" stroke="black" points="915.53,-376.58 925.5,-373 915.47,-369.58 915.53,-376.58"/>
</g>
<!-- s63&#45;&gt;s62 -->
<g id="edge4" class="edge">
<title>s63:e&#45;&gt;s62:w</title>
<path fill="none" stroke="black" d="M1120.5,-363C1140,-363 1105.07,-214.36 918,-338 883.94,-360.51 916.06,-399.99 882,-422.5 822.81,-461.62 294.18,-472.15 243.5,-422.5 231.11,-410.36 224.05,-386.35 233,-377.44"/>
<polygon fill="black" stroke="black" points="234.29,-380.69 242.5,-374 231.91,-374.11 234.29,-380.69"/>
</g>
<!-- s96 -->
<g id="node4" class="node">
<title>s96</title>
<polygon fill="none" stroke="black" points="1171.5,-369 1171.5,-417 1444.5,-417 1444.5,-369 1171.5,-369"/>
<text text-anchor="start" x="1234.5" y="-403.8" font-family="Times,serif" font-weight="bold" font-size="14.00">MeshcatVisualizer</text>
<text text-anchor="start" x="1174.5" y="-389.8" font-family="Times,serif" font-size="14.00">name=meshcat_visualizer(visualizer)</text>
<text text-anchor="start" x="1226.5" y="-375.8" font-family="Times,serif" font-size="14.00">path=/drake/visualizer</text>
<polygon fill="none" stroke="black" points="1171.5,-348 1171.5,-369 1353.5,-369 1353.5,-348 1171.5,-348"/>
<text text-anchor="start" x="1216.5" y="-354.8" font-family="Times,serif" font-size="14.00">query_object</text>
<polyline fill="none" stroke="grey" points="1353.5,-348 1444.5,-348 1444.5,-369 "/>
</g>
<!-- s63&#45;&gt;s96 -->
<g id="edge2" class="edge">
<title>s63:e&#45;&gt;s96:w</title>
<path fill="none" stroke="black" d="M1120.5,-363C1138.99,-363 1145.83,-359.57 1160.32,-358.39"/>
<polygon fill="black" stroke="black" points="1160.64,-361.88 1170.5,-358 1160.37,-354.89 1160.64,-361.88"/>
</g>
<!-- s76 -->
<g id="node3" class="node">
<title>s76</title>
<polygon fill="none" stroke="black" points="32.5,-301 32.5,-335 191.5,-335 191.5,-301 32.5,-301"/>
<text text-anchor="start" x="35.5" y="-321.8" font-family="Times,serif" font-weight="bold" font-size="14.00">__main__.Controller</text>
<text text-anchor="start" x="51.5" y="-307.8" font-family="Times,serif" font-size="14.00">name=controller</text>
<polyline fill="none" stroke="grey" points="32.5,-301 32.5,-280 107.5,-280 "/>
<polygon fill="none" stroke="black" points="107.5,-280 107.5,-301 191.5,-301 191.5,-280 107.5,-280"/>
<text text-anchor="start" x="145" y="-286.8" font-family="Times,serif" font-size="14.00">y</text>
</g>
<!-- s76&#45;&gt;s62 -->
<g id="edge5" class="edge">
<title>s76:e&#45;&gt;s62:w</title>
<path fill="none" stroke="black" d="M192.5,-290C210.9,-290 217.88,-290 232.35,-290"/>
<polygon fill="black" stroke="black" points="232.5,-293.5 242.5,-290 232.5,-286.5 232.5,-293.5"/>
</g>
<!-- meshcat_in -->
<g id="node5" class="node">
<title>meshcat_in</title>
<ellipse fill="none" stroke="magenta" cx="1538.05" cy="-383" rx="50.09" ry="18"/>
<text text-anchor="middle" x="1538.05" y="-379.3" font-family="Times,serif" font-size="14.00">Meshcat</text>
</g>
<!-- s96&#45;&gt;meshcat_in -->
<g id="edge1" class="edge">
<title>s96:e&#45;&gt;meshcat_in</title>
<path fill="none" stroke="magenta" stroke-dasharray="5,2" d="M1452,-383C1460.19,-383 1468.82,-383 1477.32,-383"/>
<polygon fill="magenta" stroke="magenta" points="1477.58,-386.5 1487.58,-383 1477.58,-379.5 1477.58,-386.5"/>
</g>
</g>
</svg>
